<svg id="Shed" xmlns="http://www.w3.org/2000/svg" width="1440.54" height="892.75" viewBox="0 0 1440.54 892.75"><line x1="1377" y1="81.91" x2="63.54" y2="81.46" style="fill:none"/><rect x="0.23" y="0.03" width="130" height="892" style="fill:#03a6a6"/><rect x="145.8" y="0.11" width="130" height="892" style="fill:#03a6a6"/><rect x="291.36" y="0.19" width="130" height="892" style="fill:#03a6a6"/><rect x="436.93" y="0.26" width="130" height="892" style="fill:#03a6a6"/><rect x="582.49" y="0.34" width="130" height="892" style="fill:#03a6a6"/><rect x="728.05" y="0.42" width="130" height="892" style="fill:#03a6a6"/><rect x="873.62" y="0.49" width="130" height="892" style="fill:#03a6a6"/><rect x="1019.18" y="0.57" width="130" height="892" style="fill:#03a6a6"/><rect x="1164.75" y="0.64" width="130" height="892" style="fill:#03a6a6"/><rect x="1310.31" y="0.72" width="130" height="892" style="fill:#03a6a6"/><rect x="0.31" y="330.87" width="1439.93" height="129.25" style="fill:#025959"/><path d="M127.08.05,127,116.56c0,25.62-28.46,46.38-63.53,46.36S0,142.13,0,116.51L.08,0Z" style="fill:#025959"/><path d="M246.49.09l-.08,116.51c0,25.62-28.47,46.38-63.54,46.36s-63.48-20.79-63.46-46.41L119.49,0Z" style="fill:#025959"/><path d="M365.9.13l-.09,116.51c0,25.62-28.46,46.38-63.53,46.36s-63.49-20.79-63.47-46.41L238.9.08Z" style="fill:#025959"/><path d="M485.3.17l-.08,116.51c0,25.62-28.47,46.38-63.54,46.37s-63.48-20.8-63.46-46.41L358.3.12Z" style="fill:#025959"/><path d="M604.71.21l-.09,116.51c0,25.62-28.46,46.38-63.53,46.37s-63.49-20.8-63.47-46.41L477.71.16Z" style="fill:#025959"/><path d="M724.11.25,724,116.77c0,25.61-28.47,46.37-63.54,46.36S597,142.34,597,116.72L597.11.2Z" style="fill:#025959"/><path d="M843.52.29l-.09,116.52c0,25.61-28.46,46.37-63.53,46.36s-63.49-20.79-63.47-46.41L716.52.24Z" style="fill:#025959"/><path d="M962.92.33l-.08,116.52c0,25.62-28.46,46.37-63.53,46.36s-63.49-20.79-63.47-46.41L835.92.29Z" style="fill:#025959"/><path d="M1082.33.37l-.09,116.52c0,25.62-28.46,46.37-63.53,46.36s-63.48-20.79-63.47-46.41L955.33.33Z" style="fill:#025959"/><path d="M1201.73.42l-.08,116.51c0,25.62-28.46,46.37-63.53,46.36s-63.49-20.79-63.47-46.41L1074.73.37Z" style="fill:#025959"/><path d="M1321.14.46,1321.05,117c0,25.62-28.46,46.37-63.53,46.36s-63.48-20.79-63.47-46.41L1194.14.41Z" style="fill:#025959"/><path d="M1440.54.5,1440.46,117c0,25.62-28.46,46.38-63.53,46.36s-63.49-20.79-63.47-46.41L1313.54.45Z" style="fill:#025959"/></svg>