<?xml version="1.0" encoding="utf-8"?>
<!-- Generator: Adobe Illustrator 24.1.2, SVG Export Plug-In . SVG Version: 6.00 Build 0)  -->
<svg version="1.1" id="BKG" xmlns="http://www.w3.org/2000/svg" xmlns:xlink="http://www.w3.org/1999/xlink" x="0px" y="0px"
	 viewBox="0 0 6528.7 906.4" style="enable-background:new 0 0 6528.7 906.4;" xml:space="preserve">
<style type="text/css">
	.st0{fill:#FFFFFF;}
</style>
<g id="clouds">
	<path class="st0" d="M2691.4,381.7c53.8,0,99.4,34.2,114.2,80.9c8.7-2.2,17.7-3.3,26.6-3.3c57.8,0,104.8,44.8,104.7,99.8
		s-47.1,99.7-104.8,99.7l-271.9-0.1c-49.8,0-90.2-38.6-90.2-86s40.5-85.9,90.3-85.9c4,0,8,0.3,12,0.8
		C2576.4,428.5,2628.3,381.6,2691.4,381.7z"/>
	<path class="st0" d="M4030.5,142.7c44.6,0,82.4,28.3,94.7,67.1c7.2-1.8,14.6-2.7,22.1-2.7c47.9,0,86.8,37.1,86.8,82.7
		s-39,82.6-86.9,82.6l-225.4-0.1c-41.3,0-74.8-32-74.8-71.2s33.6-71.2,74.9-71.2c3.3,0,6.7,0.2,10,0.6
		C3935.3,181.5,3978.2,142.6,4030.5,142.7z"/>
	<path class="st0" d="M2397.7,517.9c46.9,0,86.7,29.8,99.6,70.5c7.6-1.9,15.4-2.8,23.2-2.8c50.4,0,91.3,39,91.3,87
		s-41,86.9-91.4,86.9l-237.1-0.1c-43.4,0-78.7-33.6-78.7-74.9s35.3-74.9,78.7-74.9c3.5,0,7,0.2,10.5,0.7
		C2297.5,558.7,2342.7,517.9,2397.7,517.9z"/>
	<path class="st0" d="M2695,651.6c48.9,0,90.4,31,103.8,73.5c7.9-2,16-3,24.2-3c52.5,0,95.2,40.7,95.2,90.6s-42.8,90.6-95.2,90.5
		l-247.1-0.1c-45.2,0-82-35.1-82-78.1s36.8-78,82.1-78c3.7,0,7.3,0.2,10.9,0.7C2590.6,694.1,2637.7,651.5,2695,651.6z"/>
	<path class="st0" d="M3802.1,595.3c33.5,0,62,21.3,71.1,50.4c5.4-1.3,11-2,16.6-2c36,0,65.3,27.9,65.2,62.2s-29.3,62.1-65.3,62.1
		l-169.4-0.1c-31,0-56.2-24-56.2-53.6s25.3-53.5,56.3-53.5c2.5,0,5,0.2,7.5,0.5C3730.5,624.4,3762.8,595.3,3802.1,595.3z"/>
	<path class="st0" d="M3013,685.3c30.9,0,57.1,19.6,65.6,46.5c5-1.2,10.1-1.9,15.3-1.9c33.2,0,60.1,25.7,60.1,57.3
		s-27,57.2-60.2,57.2l-156.1-0.1c-28.6,0-51.8-22.2-51.8-49.4s23.3-49.3,51.9-49.3c2.3,0,4.6,0.1,6.9,0.5
		C2947,712.2,2976.8,685.2,3013,685.3z"/>
	<path class="st0" d="M4089.8,487.1c55.8,0,103.1,35.4,118.4,83.8c9-2.3,18.3-3.4,27.6-3.4c59.9,0,108.6,46.4,108.6,103.4
		s-48.8,103.3-108.7,103.3l-281.9-0.1c-51.6,0-93.6-40-93.5-89.1s42-89,93.6-89c4.2,0,8.3,0.3,12.4,0.8
		C3970.6,535.6,4024.4,487,4089.8,487.1z"/>
	<path class="st0" d="M3050.8,312.6c61.9,0,114.4,39.3,131.4,93.1c10-2.5,20.3-3.8,30.6-3.8c66.5,0,120.5,51.5,120.5,114.8
		s-54.1,114.7-120.6,114.6l-312.8-0.2c-57.3,0-103.8-44.4-103.8-98.9s46.6-98.8,103.9-98.8c4.6,0,9.2,0.3,13.8,0.9
		C2918.6,366.4,2978.2,312.5,3050.8,312.6z"/>
	<path class="st0" d="M3377.9,608.1c28.1,0,51.9,17.8,59.6,42.2c4.5-1.1,9.2-1.7,13.9-1.7c30.1,0,54.7,23.4,54.6,52.1
		s-24.6,52-54.7,52l-141.9-0.1c-26,0-47.1-20.1-47.1-44.9s21.2-44.8,47.1-44.8c2.1,0,4.2,0.1,6.3,0.4
		C3317.9,632.5,3344.9,608.1,3377.9,608.1z"/>
	<path class="st0" d="M3034.5,49c31.2,0,57.6,19.8,66.2,46.9c5-1.3,10.2-1.9,15.4-1.9c33.5,0,60.7,25.9,60.7,57.8
		s-27.2,57.8-60.7,57.7l-157.5-0.1c-28.8,0-52.3-22.4-52.3-49.8s23.5-49.8,52.3-49.7c2.3,0,4.7,0.2,7,0.4
		C2968,76.1,2998,49,3034.5,49z"/>
	<path class="st0" d="M3475.3,122.1c64.9,0,119.8,41.2,137.6,97.4c10.5-2.6,21.3-3.9,32.1-3.9c69.6,0,126.2,53.9,126.1,120.2
		s-56.7,120.1-126.3,120.1l-327.5-0.2c-60,0-108.7-46.5-108.7-103.6s48.8-103.5,108.8-103.4c4.8,0,9.7,0.3,14.5,0.9
		C3336.8,178.5,3399.3,122.1,3475.3,122.1z"/>
	<path class="st0" d="M3764.3-0.8c47.5,0,87.7,30.1,100.7,71.3c7.7-1.9,15.6-2.9,23.5-2.9c50.9,0,92.4,39.5,92.4,88
		s-41.5,87.9-92.4,87.9l-239.8-0.1c-43.9,0-79.6-34-79.6-75.8s35.8-75.7,79.6-75.7c3.5,0,7.1,0.2,10.6,0.7
		C3663,40.5,3708.7-0.8,3764.3-0.8z"/>
	<path class="st0" d="M2526.3,78.1c41.3,0,76.2,26.2,87.5,62c6.7-1.7,13.5-2.5,20.4-2.5c44.3,0,80.3,34.3,80.3,76.5
		s-36.1,76.4-80.4,76.4l-208.4-0.1c-38.1,0-69.2-29.6-69.2-65.9s31.1-65.8,69.2-65.8c3.1,0,6.1,0.2,9.2,0.6
		C2438.2,113.9,2478,78,2526.3,78.1z"/>
	<path class="st0" d="M4875.7,382.8c53.8,0,99.4,34.2,114.2,80.9c8.7-2.2,17.7-3.3,26.6-3.3c57.8,0,104.8,44.8,104.7,99.8
		s-47,99.7-104.8,99.7l-271.9-0.1c-49.8,0-90.2-38.6-90.2-86s40.5-85.9,90.3-85.9c4,0,8,0.3,12,0.8
		C4760.8,429.6,4812.6,382.8,4875.7,382.8z"/>
	<path class="st0" d="M6214.9,143.8c44.6,0,82.4,28.3,94.7,67.1c7.2-1.8,14.6-2.7,22.1-2.7c47.9,0,86.8,37.1,86.8,82.7
		s-39,82.6-86.9,82.6l-225.4-0.1c-41.3,0-74.8-32-74.8-71.2s33.6-71.2,74.9-71.2c3.3,0,6.7,0.2,10,0.6
		C6119.6,182.6,6162.6,143.8,6214.9,143.8z"/>
	<path class="st0" d="M4582,519c46.9,0,86.7,29.8,99.6,70.5c7.6-1.9,15.4-2.9,23.2-2.8c50.4,0,91.3,39,91.3,87s-41,86.9-91.4,86.9
		l-237.1-0.1c-43.4,0-78.7-33.6-78.7-74.9s35.4-74.9,78.8-74.9c3.5,0,7,0.2,10.5,0.7C4481.8,559.8,4527,519,4582,519z"/>
	<path class="st0" d="M4879.4,652.7c48.9,0,90.4,31,103.8,73.5c7.9-2,16-3,24.2-3c52.5,0,95.2,40.7,95.1,90.7s-42.8,90.6-95.2,90.5
		l-247.1-0.1c-45.2,0-82-35.1-82-78.1s36.8-78,82.1-78c3.6,0,7.3,0.2,10.9,0.7C4774.9,695.2,4822,652.7,4879.4,652.7z"/>
	<path class="st0" d="M5986.5,596.4c33.5,0,62,21.3,71.1,50.4c5.4-1.3,11-2,16.6-2c36,0,65.3,27.9,65.2,62.2s-29.3,62.1-65.3,62.1
		l-169.4-0.1c-31,0-56.2-24-56.2-53.5s25.3-53.5,56.3-53.5c2.5,0,5,0.2,7.5,0.5C5914.9,625.6,5947.1,596.4,5986.5,596.4z"/>
	<path class="st0" d="M5197.3,686.4c30.9,0,57.1,19.6,65.6,46.5c5-1.3,10.1-1.9,15.3-1.9c33.2,0,60.1,25.7,60.1,57.3
		s-27,57.2-60.2,57.2l-156.1-0.1c-28.6,0-51.8-22.2-51.8-49.3s23.3-49.3,51.9-49.3c2.3,0,4.6,0.2,6.9,0.5
		C5131.3,713.3,5161.1,686.4,5197.3,686.4z"/>
	<path class="st0" d="M6274.1,488.2c55.8,0,103.1,35.4,118.4,83.9c9-2.3,18.3-3.4,27.6-3.4c59.9,0,108.6,46.4,108.5,103.4
		s-48.8,103.3-108.7,103.3l-281.9-0.2c-51.6,0-93.6-40-93.5-89.1s42-89,93.6-89c4.2,0,8.3,0.3,12.5,0.8
		C6155,536.7,6208.7,488.2,6274.1,488.2z"/>
	<path class="st0" d="M5235.1,313.7c61.9,0,114.4,39.3,131.4,93c10-2.5,20.3-3.8,30.6-3.7c66.5,0,120.5,51.5,120.5,114.8
		s-54.1,114.7-120.6,114.7l-312.8-0.2c-57.3,0-103.8-44.4-103.8-98.9s46.6-98.8,103.9-98.8c4.6,0,9.2,0.3,13.8,0.9
		C5102.9,367.6,5162.6,313.7,5235.1,313.7z"/>
	<path class="st0" d="M5562.2,609.3c28.1,0,51.9,17.8,59.6,42.2c4.5-1.1,9.2-1.7,13.9-1.7c30.1,0,54.7,23.4,54.7,52.1
		s-24.6,52-54.7,52l-141.9-0.1c-26,0-47.1-20.1-47.1-44.9s21.2-44.8,47.1-44.8c2.1,0,4.2,0.1,6.3,0.4
		C5502.2,633.7,5529.3,609.2,5562.2,609.3z"/>
	<path class="st0" d="M5218.9,50.1c31.2,0,57.6,19.8,66.2,46.9c5-1.3,10.2-1.9,15.4-1.9c33.5,0,60.7,25.9,60.7,57.8
		s-27.3,57.8-60.7,57.7l-157.5-0.1c-28.8,0-52.3-22.4-52.3-49.8s23.5-49.8,52.4-49.8c2.3,0,4.7,0.1,7,0.4
		C5152.3,77.2,5182.3,50.1,5218.9,50.1z"/>
	<path class="st0" d="M5659.6,123.3c64.9,0,119.8,41.2,137.6,97.4c10.5-2.6,21.3-3.9,32.1-3.9c69.6,0,126.2,54,126.1,120.2
		s-56.7,120.1-126.3,120l-327.5-0.2c-60,0-108.7-46.5-108.7-103.5s48.8-103.5,108.8-103.4c4.8,0,9.7,0.3,14.5,0.9
		C5521.2,179.7,5583.6,123.2,5659.6,123.3z"/>
	<path class="st0" d="M5948.7,0.3c47.5,0,87.7,30.1,100.7,71.3c7.7-1.9,15.6-2.9,23.5-2.9c50.9,0,92.4,39.5,92.4,88
		s-41.5,87.9-92.5,87.9l-239.8-0.2c-43.9,0-79.6-34-79.6-75.8s35.8-75.7,79.7-75.7c3.5,0,7.1,0.2,10.6,0.7
		C5847.3,41.6,5893,0.3,5948.7,0.3z"/>
	<path class="st0" d="M4710.7,79.2c41.3,0,76.2,26.2,87.5,62c6.7-1.7,13.5-2.5,20.4-2.5c44.3,0,80.3,34.3,80.3,76.5
		s-36.1,76.4-80.3,76.4l-208.4-0.1c-38.1,0-69.2-29.6-69.1-65.9s31.1-65.8,69.2-65.8c3.1,0,6.2,0.2,9.2,0.6
		C4622.6,115.1,4662.3,79.2,4710.7,79.2z"/>
	<path class="st0" d="M486.7,380.5c53.8,0,99.4,34.2,114.2,80.9c8.7-2.2,17.7-3.3,26.6-3.2c57.8,0,104.8,44.8,104.7,99.8
		s-47.1,99.7-104.8,99.7l-271.9-0.2c-49.8,0-90.3-38.6-90.2-86s40.5-85.9,90.3-85.9c4,0,8,0.3,12,0.8
		C371.8,427.3,423.6,380.5,486.7,380.5z"/>
	<path class="st0" d="M1825.9,141.5c44.6,0,82.4,28.3,94.7,67c7.2-1.8,14.6-2.7,22.1-2.7c47.9,0,86.8,37.1,86.8,82.7
		s-39,82.6-86.9,82.6l-225.4-0.1c-41.3,0-74.8-32-74.8-71.2s33.6-71.2,74.9-71.2c3.3,0,6.7,0.2,10,0.6
		C1730.6,180.3,1773.6,141.5,1825.9,141.5z"/>
	<path class="st0" d="M193,516.7c46.9,0,86.7,29.8,99.6,70.5c7.6-1.9,15.4-2.9,23.2-2.8c50.4,0,91.3,39,91.3,87s-41,86.9-91.4,86.9
		l-237.1-0.1c-43.4,0-78.6-33.7-78.6-75s35.3-74.9,78.8-74.9c3.5,0,7,0.2,10.5,0.7C92.8,557.5,138,516.7,193,516.7z"/>
	<path class="st0" d="M490.4,650.4c48.9,0,90.4,31,103.8,73.5c7.9-2,16-3,24.2-3c52.5,0,95.2,40.7,95.2,90.7s-42.8,90.6-95.2,90.5
		L371.2,902c-45.2,0-82-35.1-82-78.1s36.8-78,82.1-78c3.6,0,7.3,0.2,10.9,0.7C385.9,693,433,650.4,490.4,650.4z"/>
	<path class="st0" d="M1597.5,594.1c33.6,0,62,21.3,71.2,50.4c5.4-1.3,11-2,16.6-2c36,0,65.3,27.9,65.2,62.2s-29.3,62.1-65.3,62.1
		l-169.4-0.1c-31,0-56.2-24-56.2-53.5s25.3-53.5,56.3-53.5c2.5,0,5,0.2,7.5,0.5C1525.8,623.3,1558.2,594.1,1597.5,594.1z"/>
	<path class="st0" d="M808.3,684.1c30.9,0,57.1,19.6,65.6,46.5c5-1.2,10.1-1.9,15.3-1.9c33.2,0,60.2,25.7,60.1,57.3
		s-27,57.2-60.2,57.2L733,843.1c-28.6,0-51.8-22.2-51.8-49.4s23.3-49.3,51.9-49.3c2.3,0,4.6,0.1,6.9,0.4
		C742.3,711,772.1,684.1,808.3,684.1z"/>
	<path class="st0" d="M1885.1,485.9c55.8,0,103.1,35.4,118.4,83.9c9-2.3,18.3-3.4,27.6-3.4c59.9,0,108.6,46.4,108.5,103.4
		s-48.8,103.3-108.7,103.3l-281.8-0.1c-51.6,0-93.6-40-93.5-89.1s42-89,93.6-89c4.2,0,8.3,0.3,12.5,0.8
		C1766,534.4,1819.7,485.9,1885.1,485.9z"/>
	<path class="st0" d="M846.1,311.4c61.9,0,114.4,39.3,131.4,93c10-2.5,20.3-3.8,30.6-3.7c66.5,0,120.5,51.5,120.5,114.8
		s-54.1,114.7-120.6,114.6L695.2,630c-57.3,0-103.8-44.4-103.8-98.9s46.6-98.8,103.9-98.8c4.6,0,9.2,0.3,13.8,0.9
		C713.9,365.3,773.6,311.4,846.1,311.4z"/>
	<path class="st0" d="M1173.2,607c28.1,0,51.9,17.8,59.6,42.2c4.5-1.1,9.2-1.7,13.9-1.7c30.2,0,54.7,23.4,54.7,52.1
		s-24.6,52-54.7,52l-141.9-0.1c-26,0-47.1-20.1-47.1-44.9s21.2-44.8,47.1-44.8c2.1,0,4.2,0.1,6.3,0.4
		C1113.2,631.4,1140.3,607,1173.2,607z"/>
	<path class="st0" d="M829.9,47.8c31.2,0,57.6,19.8,66.2,46.9c5-1.3,10.2-1.9,15.4-1.9c33.5,0,60.7,25.9,60.7,57.8
		s-27.3,57.8-60.7,57.7L754,208.2c-28.8,0-52.3-22.4-52.3-49.8s23.5-49.8,52.4-49.7c2.3,0,4.7,0.1,7,0.4
		C763.3,75,793.3,47.8,829.9,47.8z"/>
	<path class="st0" d="M1270.6,121c64.9,0,119.8,41.2,137.6,97.4c10.5-2.6,21.3-3.9,32.1-3.9c69.6,0,126.2,53.9,126.2,120.2
		s-56.7,120.1-126.3,120l-327.5-0.2c-60,0-108.7-46.5-108.7-103.5s48.8-103.5,108.8-103.4c4.8,0,9.7,0.3,14.5,0.9
		C1132.2,177.4,1194.6,121,1270.6,121z"/>
	<path class="st0" d="M1559.7-2c47.5,0,87.7,30.1,100.7,71.3c7.7-1.9,15.6-2.9,23.5-2.9c50.9,0,92.4,39.5,92.3,88
		s-41.5,87.9-92.4,87.9l-239.8-0.2c-43.9,0-79.6-34-79.6-75.8s35.8-75.7,79.7-75.7c3.5,0,7.1,0.2,10.6,0.7
		C1458.3,39.3,1504.1-2,1559.7-2z"/>
	<path class="st0" d="M321.7,76.9c41.3,0,76.2,26.2,87.5,62c6.7-1.7,13.5-2.5,20.4-2.5c44.3,0,80.3,34.3,80.3,76.5
		s-36.1,76.4-80.3,76.4l-208.4-0.1c-38.1,0-69.1-29.6-69.1-65.9s31.1-65.8,69.2-65.8c3.1,0,6.2,0.2,9.2,0.6
		C233.6,112.8,273.3,76.9,321.7,76.9z"/>
</g>
</svg>
