<svg xmlns="http://www.w3.org/2000/svg" width="149.27" height="611.82" viewBox="0 0 149.27 611.82"><g id="pitch_fork"><path d="M63.51,202.66c-2.9,0-5.24,1.41-5.25,3.15L58.06,602c0,5.43,7.33,9.84,16.38,9.84s16.4-4.39,16.4-9.82l.21-396.17c0-1.74-2.35-3.15-5.24-3.15H63.51Z" style="fill:#f25f29"/><path d="M129.74,2.46a6.56,6.56,0,0,0-10.25,8.19c20.76,26,20.67,85.34,6,115.75-9.61,20-24.53,31-44.38,32.94l0-147.56a6.56,6.56,0,0,0-13.11,0l0,147.53c-19.59-2-34.4-12.9-44-32.57C6,90,12.1,33.73,29.18,11.65a6.55,6.55,0,1,0-10.37-8c-10,13-16.76,34.48-18.42,59-1.75,25.94,2.45,50.76,11.83,69.89,11.87,24.21,31.08,37.93,55.81,40v30.17H81.14V172.52c25-2,44.38-15.87,56.2-40.43C157.66,89.86,149.94,27.73,129.74,2.46ZM12,103.37a2.31,2.31,0,0,1-.37,0,2,2,0,0,1-1.93-1.6C3.24,67.12,9.82,26.13,25.06,6.44a2,2,0,1,1,3.11,2.41C13.55,27.74,7.29,67.39,13.6,101.07A2,2,0,0,1,12,103.37ZM73.31,11.78a2.63,2.63,0,0,1,5.25,0l0,142.36a2.63,2.63,0,0,1-5.25,0Zm5.17,181.7a2.62,2.62,0,0,1-5.24,0V177.25a2.63,2.63,0,0,1,5.25,0Zm27.07-31.37a2,2,0,0,1-.86.19,2,2,0,0,1-.85-3.73c22.41-10.82,32-34.45,36-52.36,7.87-34.66,1.52-78.81-14.16-98.42a2,2,0,1,1,3.07-2.46C145.38,26.1,151.94,70.8,143.7,107.08,139.44,125.84,129.37,150.61,105.55,162.11Z" style="fill:#a0d9d9"/><path d="M75.9,156.76a2.63,2.63,0,0,0,2.63-2.62l0-142.36a2.63,2.63,0,0,0-5.25,0l0,142.36A2.63,2.63,0,0,0,75.9,156.76Z" style="fill:#fff"/><path d="M75.87,174.63a2.63,2.63,0,0,0-2.63,2.62v16.23a2.62,2.62,0,0,0,5.24,0V177.25A2.63,2.63,0,0,0,75.87,174.63Z" style="fill:#fff"/><path d="M28.17,8.85a2,2,0,1,0-3.11-2.41C9.82,26.13,3.24,67.12,9.73,101.8a2,2,0,0,0,1.93,1.6,2.31,2.31,0,0,0,.37,0,2,2,0,0,0,1.57-2.3C7.29,67.39,13.55,27.74,28.17,8.85Z" style="fill:#fff"/><path d="M128.77,5.33a2,2,0,1,0-3.07,2.46c15.68,19.61,22,63.76,14.16,98.42-4.06,17.91-13.61,41.54-36,52.36a2,2,0,0,0,.85,3.73,2,2,0,0,0,.86-.19c23.82-11.5,33.89-36.27,38.15-55C151.94,70.8,145.38,26.1,128.77,5.33Z" style="fill:#fff"/></g></svg>