<svg id="BKG" xmlns="http://www.w3.org/2000/svg" width="1920" height="192" viewBox="0 0 1920 192"><rect id="bkg-2" data-name="bkg" x="516.5" y="-1403.76" width="886.99" height="1919.54" transform="translate(1403.49 516.24) rotate(-89.97)" style="fill:#a0d9d9"/><g id="grass"><path d="M912.12,95.24a10.74,10.74,0,0,0,.86-6.85,26.76,26.76,0,0,0-3-7.56l-.64-1.19,1.93-1.37.9,1a30.32,30.32,0,0,1,5.27,7.65,16.39,16.39,0,0,1,1.37,5,17.07,17.07,0,0,1-.27,5.29l-.66,3.3-7.2-2.18Z" style="fill:#025959"/><path d="M917,96.12a13.27,13.27,0,0,1,.73-3.74,12.72,12.72,0,0,1,1.69-3.21A22.08,22.08,0,0,1,924,84.7l1.07-.83,1.63,1.52L926,86.53a18.38,18.38,0,0,0-2.36,4.8,6.93,6.93,0,0,0,.1,4.24l1.11,3.27-7.95.65Z" style="fill:#025959"/><path d="M200.54,104.64a9.31,9.31,0,0,0,.74-5.93,23.31,23.31,0,0,0-2.6-6.54l-.56-1L199.8,90l.77.88a26.06,26.06,0,0,1,4.56,6.62,14,14,0,0,1,1.18,4.28,14.65,14.65,0,0,1-.23,4.58l-.57,2.85-6.23-1.88Z" style="fill:#025959"/><path d="M204.78,105.39a11.48,11.48,0,0,1,.62-3.23,11.14,11.14,0,0,1,1.47-2.78,19.15,19.15,0,0,1,3.95-3.86l.92-.72,1.41,1.31-.64,1a15.78,15.78,0,0,0-2,4.15,5.94,5.94,0,0,0,.08,3.67l1,2.83-6.88.56Z" style="fill:#025959"/><path d="M1562.2,100.8a12.63,12.63,0,0,0,1-8,31.55,31.55,0,0,0-3.52-8.86l-.75-1.38,2.26-1.61,1,1.18a35.76,35.76,0,0,1,6.18,9,19.65,19.65,0,0,1,1.6,5.81,20.45,20.45,0,0,1-.31,6.2l-.78,3.86-8.43-2.55Z" style="fill:#025959"/><path d="M1567.94,101.83a15.19,15.19,0,0,1,.85-4.38,15,15,0,0,1,2-3.77,25.74,25.74,0,0,1,5.34-5.22l1.26-1,1.9,1.77-.86,1.34a21.51,21.51,0,0,0-2.77,5.62,8.09,8.09,0,0,0,.12,5l1.3,3.82-9.32.77Z" style="fill:#025959"/><path d="M1461.6,96.3a12.74,12.74,0,0,0,1-8.09,31.88,31.88,0,0,0-3.55-8.92l-.76-1.4,2.28-1.62,1.05,1.19a35.88,35.88,0,0,1,6.23,9,19.32,19.32,0,0,1,1.61,5.85,20.15,20.15,0,0,1-.31,6.25l-.78,3.89-8.5-2.57Z" style="fill:#025959"/><path d="M1467.39,97.34a15.52,15.52,0,0,1,.85-4.42,15.17,15.17,0,0,1,2-3.79,26,26,0,0,1,5.39-5.27l1.26-1,1.92,1.79-.87,1.35a21.52,21.52,0,0,0-2.79,5.66,8.18,8.18,0,0,0,.12,5l1.31,3.86-9.39.77Z" style="fill:#025959"/><path d="M157.94,42a7.86,7.86,0,0,0,.62-5,19.65,19.65,0,0,0-2.18-5.47l-.47-.86,1.41-1,.64.74A22.15,22.15,0,0,1,161.78,36a12.07,12.07,0,0,1,1,3.59,12.6,12.6,0,0,1-.2,3.83l-.47,2.39-5.22-1.58Z" style="fill:#025959"/><path d="M161.48,42.64a9.58,9.58,0,0,1,.53-2.7,9,9,0,0,1,1.22-2.33,15.94,15.94,0,0,1,3.3-3.23l.78-.6,1.18,1.1-.54.82a13.6,13.6,0,0,0-1.71,3.47,5.1,5.1,0,0,0,.07,3.08l.81,2.36-5.76.47Z" style="fill:#025959"/><path d="M751,90.67a14.26,14.26,0,0,0,1.14-9.11,35.5,35.5,0,0,0-4-10l-.85-1.57,2.57-1.83,1.19,1.34a40.64,40.64,0,0,1,7,10.17,21.85,21.85,0,0,1,1.81,6.59,23,23,0,0,1-.35,7l-.88,4.38-9.53-2.88Z" style="fill:#025959"/><path d="M757.51,91.83a17.87,17.87,0,0,1,1-5,17.49,17.49,0,0,1,2.25-4.27,29.48,29.48,0,0,1,6.07-5.93l1.42-1.1,2.16,2-1,1.52a24.26,24.26,0,0,0-3.14,6.37,9.25,9.25,0,0,0,.13,5.65l1.48,4.34-10.57.86Z" style="fill:#025959"/><path d="M1219.17,161.35a6.74,6.74,0,0,0,.54-4.32,16.94,16.94,0,0,0-1.89-4.77l-.41-.75,1.22-.87.56.64a19.09,19.09,0,0,1,3.33,4.82,10.43,10.43,0,0,1,.86,3.13,10.69,10.69,0,0,1-.17,3.34l-.41,2.08-4.54-1.37Z" style="fill:#025959"/><path d="M1222.26,161.9a8.05,8.05,0,0,1,1.53-4.38,13.87,13.87,0,0,1,2.87-2.82l.68-.52,1,.95-.47.72a11.48,11.48,0,0,0-1.49,3,4.43,4.43,0,0,0,.06,2.68l.7,2.06-5,.4Z" style="fill:#025959"/><path d="M477.35,35.44a10.65,10.65,0,0,0,.85-6.77,26.83,26.83,0,0,0-3-7.47L474.59,20l1.92-1.35.88,1a30.06,30.06,0,0,1,5.21,7.56,16.59,16.59,0,0,1,1.34,4.89,17,17,0,0,1-.26,5.23L483,40.61l-7.11-2.15Z" style="fill:#025959"/><path d="M482.19,36.3a13.32,13.32,0,0,1,.71-3.69,12.75,12.75,0,0,1,1.68-3.17,21.5,21.5,0,0,1,4.5-4.41l1.06-.82,1.61,1.5L491,26.83a17.92,17.92,0,0,0-2.33,4.74,6.84,6.84,0,0,0,.09,4.19l1.1,3.23-7.85.64Z" style="fill:#025959"/><path d="M558.67,155.31a11,11,0,0,0,.87-7,27.49,27.49,0,0,0-3.06-7.69l-.66-1.21,2-1.39.9,1a31,31,0,0,1,5.37,7.79,16.92,16.92,0,0,1,1.39,5,17.63,17.63,0,0,1-.27,5.38l-.67,3.36-7.33-2.22Z" style="fill:#025959"/><path d="M563.65,156.2a13.69,13.69,0,0,1,.74-3.8,13.19,13.19,0,0,1,1.72-3.27,22.55,22.55,0,0,1,4.64-4.54l1.09-.84,1.65,1.54-.75,1.16a19,19,0,0,0-2.4,4.88,7.11,7.11,0,0,0,.1,4.32l1.13,3.32-8.09.66Z" style="fill:#025959"/><path d="M286.77,39.79a11.24,11.24,0,0,0,.9-7.19,28.27,28.27,0,0,0-3.15-7.93l-.68-1.24,2-1.44.94,1.06a31.76,31.76,0,0,1,5.53,8,17.39,17.39,0,0,1,1.43,5.2,17.8,17.8,0,0,1-.28,5.55l-.69,3.46L285.25,43Z" style="fill:#025959"/><path d="M291.91,40.71a13.69,13.69,0,0,1,.76-3.92,13.33,13.33,0,0,1,1.78-3.37,22.91,22.91,0,0,1,4.78-4.68l1.12-.87,1.71,1.58-.77,1.2a19.38,19.38,0,0,0-2.48,5,7.22,7.22,0,0,0,.1,4.45l1.17,3.43-8.34.68Z" style="fill:#025959"/><path d="M1109.66,35.11a6.46,6.46,0,0,0,.52-4.14,16.21,16.21,0,0,0-1.82-4.58l-.39-.72,1.17-.83.54.61a18.47,18.47,0,0,1,3.2,4.63,9.86,9.86,0,0,1,.82,3,10.46,10.46,0,0,1-.16,3.21l-.4,2L1108.78,37Z" style="fill:#025959"/><path d="M1112.63,35.64a7.69,7.69,0,0,1,1.46-4.2,13.56,13.56,0,0,1,2.76-2.71l.65-.5,1,.92-.45.69a11.29,11.29,0,0,0-1.43,2.9,4.22,4.22,0,0,0,.06,2.57l.67,2-4.78.39Z" style="fill:#025959"/><path d="M29,160.22a9.92,9.92,0,0,0,.79-6.31,24.55,24.55,0,0,0-2.77-7l-.59-1.09,1.78-1.27.82.93a28.17,28.17,0,0,1,4.87,7.05,15.61,15.61,0,0,1,1.26,4.57,16,16,0,0,1-.25,4.88l-.61,3-6.64-2Z" style="fill:#025959"/><path d="M33.55,161a11.86,11.86,0,0,1,.67-3.44,11.26,11.26,0,0,1,1.56-3,20.14,20.14,0,0,1,4.2-4.12l1-.77,1.5,1.4-.68,1.05a17.24,17.24,0,0,0-2.18,4.42,6.43,6.43,0,0,0,.09,3.92l1,3-7.33.6Z" style="fill:#025959"/><path d="M134.58,109.49a11.54,11.54,0,0,0,.92-7.33,29.07,29.07,0,0,0-3.22-8.1l-.69-1.27,2.07-1.47,1,1.08a32.6,32.6,0,0,1,5.65,8.19,17.75,17.75,0,0,1,1.46,5.31,18.22,18.22,0,0,1-.28,5.66l-.71,3.53L133,112.76Z" style="fill:#025959"/><path d="M139.82,110.43a14,14,0,0,1,.78-4,13.48,13.48,0,0,1,1.81-3.43,23.63,23.63,0,0,1,4.88-4.78l1.15-.89,1.74,1.62-.79,1.22a19.83,19.83,0,0,0-2.53,5.13,7.54,7.54,0,0,0,.1,4.55l1.19,3.5-8.51.69Z" style="fill:#025959"/><path d="M799,154.26a9.24,9.24,0,0,0,.73-5.86,22.8,22.8,0,0,0-2.57-6.47l-.55-1,1.65-1.18.77.86a26.12,26.12,0,0,1,4.51,6.55,14.29,14.29,0,0,1,1.17,4.24,14.9,14.9,0,0,1-.23,4.52l-.57,2.82-6.15-1.86Z" style="fill:#025959"/><path d="M803.21,155a10.87,10.87,0,0,1,.62-3.19,11.2,11.2,0,0,1,1.44-2.75,19,19,0,0,1,3.91-3.82l.91-.71,1.39,1.3-.63,1a15.68,15.68,0,0,0-2,4.09,5.91,5.91,0,0,0,.09,3.64l1,2.79-6.8.56Z" style="fill:#025959"/><path d="M1871.73,161.17a6.78,6.78,0,0,0,.54-4.31,16.94,16.94,0,0,0-1.89-4.75l-.41-.75,1.22-.86.56.63a19,19,0,0,1,3.32,4.81,10.9,10.9,0,0,1,.86,3.12,11.19,11.19,0,0,1-.17,3.32l-.42,2.08-4.52-1.37Z" style="fill:#025959"/><path d="M1874.81,161.72a8,8,0,0,1,1.52-4.37,14.07,14.07,0,0,1,2.87-2.81l.67-.52,1,.95-.46.72a11.38,11.38,0,0,0-1.49,3,4.39,4.39,0,0,0,.06,2.67l.7,2.06-5,.4Z" style="fill:#025959"/><path d="M1556,37a8.43,8.43,0,0,0,.67-5.35,21.19,21.19,0,0,0-2.35-5.9l-.5-.93,1.51-1.07.69.79a23.68,23.68,0,0,1,4.12,6,12.88,12.88,0,0,1,1.07,3.87,13.6,13.6,0,0,1-.21,4.13l-.52,2.58-5.62-1.7Z" style="fill:#025959"/><path d="M1559.82,37.65a10,10,0,0,1,.57-2.91,9.5,9.5,0,0,1,1.32-2.51,17.22,17.22,0,0,1,3.56-3.49l.83-.64,1.27,1.18-.57.89a14.43,14.43,0,0,0-1.85,3.74,5.42,5.42,0,0,0,.08,3.32l.87,2.55-6.21.51Z" style="fill:#025959"/><path d="M398,154a12.83,12.83,0,0,0,1-8.18,31.75,31.75,0,0,0-3.59-9l-.76-1.41,2.31-1.64,1.06,1.2a36.24,36.24,0,0,1,6.3,9.13A19.87,19.87,0,0,1,406,150a20.6,20.6,0,0,1-.32,6.32l-.79,3.93-8.59-2.59Z" style="fill:#025959"/><path d="M403.86,155.07a15.74,15.74,0,0,1,.86-4.46,15.14,15.14,0,0,1,2-3.83,26.06,26.06,0,0,1,5.45-5.33l1.28-1,1.94,1.81-.88,1.37a21.66,21.66,0,0,0-2.82,5.72,8.22,8.22,0,0,0,.12,5.07l1.32,3.9-9.49.78Z" style="fill:#025959"/><path d="M218.87,41a11,11,0,0,0,.88-7,27.28,27.28,0,0,0-3.07-7.72L216,25l2-1.4.91,1a31,31,0,0,1,5.39,7.81,16.76,16.76,0,0,1,1.39,5.06,17.53,17.53,0,0,1-.27,5.41l-.67,3.36-7.36-2.22Z" style="fill:#025959"/><path d="M223.88,41.85a12.9,12.9,0,0,1,2.47-7.09A22.45,22.45,0,0,1,231,30.2l1.1-.85,1.66,1.54L233,32.06A18.22,18.22,0,0,0,230.6,37a7.07,7.07,0,0,0,.09,4.33l1.14,3.34-8.12.67Z" style="fill:#025959"/><path d="M1125.86,162.4a11.51,11.51,0,0,0,.91-7.3,28.44,28.44,0,0,0-3.21-8.07l-.68-1.27,2.06-1.46,1,1.08a32.26,32.26,0,0,1,5.63,8.16,17.85,17.85,0,0,1,1.46,5.28,18.45,18.45,0,0,1-.29,5.65L1132,168l-7.68-2.32Z" style="fill:#025959"/><path d="M1131.09,163.34a13.61,13.61,0,0,1,2.57-7.42,23.73,23.73,0,0,1,4.87-4.76l1.14-.88,1.73,1.61-.78,1.22a19.52,19.52,0,0,0-2.52,5.11,7.47,7.47,0,0,0,.1,4.53l1.19,3.49-8.48.7Z" style="fill:#025959"/><path d="M476,155.51a6.72,6.72,0,0,0,.54-4.29,16.91,16.91,0,0,0-1.88-4.73l-.4-.74,1.21-.86.55.63a19.11,19.11,0,0,1,3.31,4.79,10.44,10.44,0,0,1,.85,3.1,10.82,10.82,0,0,1-.17,3.31l-.41,2.06-4.51-1.36Z" style="fill:#025959"/><path d="M479,156.06a8,8,0,0,1,1.51-4.35,13.62,13.62,0,0,1,2.85-2.79l.67-.52,1,.94-.46.72a11.59,11.59,0,0,0-1.48,3,4.33,4.33,0,0,0,.06,2.65l.7,2-5,.4Z" style="fill:#025959"/><path d="M421.11,70.86a8.57,8.57,0,0,0,.68-5.44,21.3,21.3,0,0,0-2.39-6l-.51-.94,1.54-1.09.7.8a24.29,24.29,0,0,1,4.19,6.07,13,13,0,0,1,1.08,3.93,13.74,13.74,0,0,1-.21,4.2L425.67,75,420,73.28Z" style="fill:#025959"/><path d="M425,71.55a10.08,10.08,0,0,1,.57-3A10.22,10.22,0,0,1,426.91,66a17.55,17.55,0,0,1,3.62-3.55l.85-.66L432.67,63l-.58.9a14.48,14.48,0,0,0-1.88,3.81,5.5,5.5,0,0,0,.08,3.37l.88,2.59-6.31.52Z" style="fill:#025959"/><path d="M871.55,154.39a7.66,7.66,0,0,0,.61-4.87,19,19,0,0,0-2.14-5.38l-.46-.84,1.38-1,.63.72a21.88,21.88,0,0,1,3.76,5.44,12,12,0,0,1,1,3.53,12.47,12.47,0,0,1-.19,3.76l-.47,2.35-5.12-1.55Z" style="fill:#025959"/><path d="M875,155a9.06,9.06,0,0,1,1.71-5A15.9,15.9,0,0,1,880,146.9l.76-.59,1.15,1.07-.52.82a13.14,13.14,0,0,0-1.68,3.41,4.91,4.91,0,0,0,.07,3l.79,2.32-5.65.46Z" style="fill:#025959"/><path d="M566.09,39.76a11.45,11.45,0,0,0,.9-7.26,28.41,28.41,0,0,0-3.18-8l-.68-1.25,2-1.46.94,1.07A32.29,32.29,0,0,1,571.71,31a17.59,17.59,0,0,1,1.45,5.24,18.19,18.19,0,0,1-.29,5.61l-.7,3.49L564.55,43Z" style="fill:#025959"/><path d="M571.28,40.69a13.69,13.69,0,0,1,.76-4,14,14,0,0,1,1.79-3.41,23.38,23.38,0,0,1,4.84-4.72l1.13-.88,1.72,1.6-.78,1.21a19.27,19.27,0,0,0-2.5,5.08,7.38,7.38,0,0,0,.1,4.5l1.18,3.46-8.42.69Z" style="fill:#025959"/><path d="M1619.59,47.08a10.43,10.43,0,0,0,.82-6.63,25.85,25.85,0,0,0-2.9-7.31l-.63-1.15,1.88-1.33.86,1a29.23,29.23,0,0,1,5.1,7.4,15.72,15.72,0,0,1,1.32,4.79,16.27,16.27,0,0,1-.26,5.12l-.63,3.19-7-2.11Z" style="fill:#025959"/><path d="M1624.33,47.92a12.18,12.18,0,0,1,2.33-6.72,21.62,21.62,0,0,1,4.41-4.32l1-.8,1.57,1.46-.71,1.11a17.47,17.47,0,0,0-2.28,4.64,6.67,6.67,0,0,0,.09,4.11l1.07,3.16-7.69.63Z" style="fill:#025959"/><path d="M23.09,101.44a14.6,14.6,0,0,0,1.3-4.33,14.82,14.82,0,0,0-.17-4.72,35.35,35.35,0,0,0-4-10l-.85-1.56L22,79l1.17,1.34a40,40,0,0,1,7,10.1A22,22,0,0,1,31.9,97a22.38,22.38,0,0,1-.35,7l-.87,4.36-9.47-2.86Z" style="fill:#025959"/><path d="M29.56,102.59a17.3,17.3,0,0,1,1-4.93,16.91,16.91,0,0,1,2.24-4.24,29.1,29.1,0,0,1,6-5.9l1.42-1.1,2.15,2-1,1.51a24.06,24.06,0,0,0-3.11,6.33,9.13,9.13,0,0,0,.12,5.61l1.47,4.32-10.5.86Z" style="fill:#025959"/><path d="M1879,102.53a7.1,7.1,0,0,0,.57-4.55,17.49,17.49,0,0,0-2-5l-.43-.78,1.29-.92.6.67a20.59,20.59,0,0,1,3.51,5.09,10.88,10.88,0,0,1,.9,3.3,11.23,11.23,0,0,1-.17,3.52l-.44,2.2-4.79-1.45Z" style="fill:#025959"/><path d="M1882.21,103.12a8.49,8.49,0,0,1,1.61-4.63,14.66,14.66,0,0,1,3-3l.71-.55,1.08,1-.49.76a11.78,11.78,0,0,0-1.57,3.19,4.57,4.57,0,0,0,.06,2.82l.74,2.18-5.26.43Z" style="fill:#025959"/><path d="M272.1,100.46a6.54,6.54,0,0,0,.53-4.21,16.29,16.29,0,0,0-1.85-4.66l-.4-.73,1.2-.84.54.62a18.65,18.65,0,0,1,3.25,4.71,10.12,10.12,0,0,1,.84,3.05,10.72,10.72,0,0,1-.16,3.25l-.41,2-4.43-1.34Z" style="fill:#025959"/><path d="M275.12,101a7.9,7.9,0,0,1,1.48-4.28A13.68,13.68,0,0,1,279.41,94l.66-.51,1,.93-.45.7a11.23,11.23,0,0,0-1.46,3,4.35,4.35,0,0,0,.06,2.61l.69,2-4.87.4Z" style="fill:#025959"/><path d="M641,161.23a12.91,12.91,0,0,0,1-8.23,32.46,32.46,0,0,0-3.61-9.09l-.78-1.43,2.33-1.65,1.07,1.22a36.53,36.53,0,0,1,6.34,9.19,20.05,20.05,0,0,1,1.64,6,20.86,20.86,0,0,1-.32,6.36l-.79,4-8.66-2.62Z" style="fill:#025959"/><path d="M646.86,162.28a15.68,15.68,0,0,1,.87-4.49,15.39,15.39,0,0,1,2-3.86,26.35,26.35,0,0,1,5.48-5.36l1.29-1,2,1.82-.88,1.37a21.81,21.81,0,0,0-2.84,5.76,8.35,8.35,0,0,0,.12,5.11l1.33,3.92-9.55.79Z" style="fill:#025959"/><path d="M1053.21,105.42a11.14,11.14,0,0,0,.89-7.09A27.78,27.78,0,0,0,1051,90.5l-.66-1.23,2-1.42.93,1.05a31.67,31.67,0,0,1,5.46,7.92,17.14,17.14,0,0,1,1.41,5.13,18,18,0,0,1-.27,5.48l-.69,3.41-7.45-2.25Z" style="fill:#025959"/><path d="M1058.28,106.33a13.76,13.76,0,0,1,.75-3.87,13.32,13.32,0,0,1,1.75-3.33,23.12,23.12,0,0,1,4.73-4.62l1.11-.86,1.68,1.57-.76,1.18a18.77,18.77,0,0,0-2.45,5,7.18,7.18,0,0,0,.1,4.39l1.15,3.39-8.23.67Z" style="fill:#025959"/><path d="M90.27,161.36a12.08,12.08,0,0,0,1-7.69,30,30,0,0,0-3.38-8.49l-.72-1.33,2.17-1.54,1,1.13A34.35,34.35,0,0,1,96.23,152a18.74,18.74,0,0,1,1.53,5.56,19.45,19.45,0,0,1-.3,5.95l-.74,3.7-8.08-2.45Z" style="fill:#025959"/><path d="M95.77,162.34a14.61,14.61,0,0,1,.81-4.19,14.23,14.23,0,0,1,1.9-3.61,24.91,24.91,0,0,1,5.12-5l1.2-.93,1.83,1.7-.83,1.28a20.32,20.32,0,0,0-2.65,5.38,7.79,7.79,0,0,0,.11,4.77l1.25,3.67-8.93.73Z" style="fill:#025959"/><path d="M1806.77,102.46a7.6,7.6,0,0,0,.6-4.83,18.89,18.89,0,0,0-2.12-5.32l-.45-.84,1.36-1,.63.72a21.55,21.55,0,0,1,3.72,5.39,12,12,0,0,1,1,3.49,12.27,12.27,0,0,1-.19,3.73l-.46,2.32-5.08-1.53Z" style="fill:#025959"/><path d="M1810.22,103.08a9.15,9.15,0,0,1,.51-2.64,8.67,8.67,0,0,1,1.19-2.26,15.57,15.57,0,0,1,3.21-3.14l.76-.59,1.14,1.07-.52.8a13,13,0,0,0-1.66,3.38,4.81,4.81,0,0,0,.07,3l.78,2.31-5.6.45Z" style="fill:#025959"/><path d="M682.19,100.9a14.36,14.36,0,0,0,1.14-9.15,35.76,35.76,0,0,0-4-10.09l-.86-1.59L681,78.24l1.19,1.35a40.55,40.55,0,0,1,7,10.21,22.13,22.13,0,0,1,1.82,6.62,23,23,0,0,1-.35,7.07l-.88,4.4L680.29,105Z" style="fill:#025959"/><path d="M688.73,102.07a17.73,17.73,0,0,1,1-5A17.14,17.14,0,0,1,692,92.79a29.48,29.48,0,0,1,6.09-6l1.43-1.11,2.17,2-1,1.53a24.21,24.21,0,0,0-3.16,6.4,9.31,9.31,0,0,0,.13,5.67l1.49,4.37-10.62.86Z" style="fill:#025959"/><path d="M1272.71,103.76a9.46,9.46,0,0,0,.75-6,23.47,23.47,0,0,0-2.64-6.65l-.57-1,1.71-1.21.78.89a26.88,26.88,0,0,1,4.64,6.72,14.8,14.8,0,0,1,1.2,4.36,15.1,15.1,0,0,1-.24,4.65l-.58,2.9-6.33-1.91Z" style="fill:#025959"/><path d="M1277,104.53a11.55,11.55,0,0,1,.63-3.29,11.28,11.28,0,0,1,1.49-2.82,19.54,19.54,0,0,1,4-3.93l.94-.73,1.43,1.33-.65,1a15.93,15.93,0,0,0-2.07,4.21,6.08,6.08,0,0,0,.08,3.74l1,2.87-7,.57Z" style="fill:#025959"/><path d="M834.68,83.06a7.49,7.49,0,0,0,.6-4.79,18.65,18.65,0,0,0-2.1-5.29l-.45-.83,1.35-1,.62.71a20.89,20.89,0,0,1,3.69,5.35,11.57,11.57,0,0,1,1,3.47,12.08,12.08,0,0,1-.19,3.7l-.46,2.3-5-1.52Z" style="fill:#025959"/><path d="M838.11,83.68a9.28,9.28,0,0,1,.5-2.62,9.09,9.09,0,0,1,1.19-2.25A15.37,15.37,0,0,1,843,75.69l.75-.58,1.13,1.06-.51.8a12.83,12.83,0,0,0-1.65,3.35,4.75,4.75,0,0,0,.07,3l.77,2.29L838,86Z" style="fill:#025959"/><path d="M1038.93,162.76a6.51,6.51,0,0,0,.52-4.18,16.29,16.29,0,0,0-1.83-4.62l-.4-.72,1.19-.84.54.61a18.38,18.38,0,0,1,3.22,4.68,10.22,10.22,0,0,1,.84,3,10.59,10.59,0,0,1-.17,3.23l-.4,2-4.4-1.33Z" style="fill:#025959"/><path d="M1041.92,163.3a7.85,7.85,0,0,1,1.48-4.25,13.19,13.19,0,0,1,2.78-2.72l.66-.51,1,.92-.45.7a11.18,11.18,0,0,0-1.44,2.93A4.14,4.14,0,0,0,1046,163l.68,2-4.83.39Z" style="fill:#025959"/><path d="M1037.53,40.3a9.2,9.2,0,0,0,.74-5.87,23.14,23.14,0,0,0-2.58-6.47l-.55-1,1.66-1.18.76.87a26,26,0,0,1,4.52,6.55,14.14,14.14,0,0,1,1.17,4.25A14.64,14.64,0,0,1,1043,42l-.56,2.83-6.17-1.87Z" style="fill:#025959"/><path d="M1041.73,41.05a10.88,10.88,0,0,1,2.07-5.95,18.75,18.75,0,0,1,3.91-3.82l.92-.72,1.39,1.3-.63,1a15.52,15.52,0,0,0-2,4.11,5.91,5.91,0,0,0,.09,3.64l1,2.79-6.81.56Z" style="fill:#025959"/><path d="M1405.49,39.54a11.39,11.39,0,0,0,.9-7.24,28.18,28.18,0,0,0-3.18-8l-.68-1.25,2-1.45.94,1.06a32.14,32.14,0,0,1,5.58,8.09,17.51,17.51,0,0,1,1.44,5.23,18.37,18.37,0,0,1-.28,5.59l-.7,3.49-7.61-2.3Z" style="fill:#025959"/><path d="M1410.66,40.46a14,14,0,0,1,.77-4,13.17,13.17,0,0,1,1.79-3.39A23.51,23.51,0,0,1,1418,28.4l1.14-.87,1.71,1.59-.78,1.21a19.48,19.48,0,0,0-2.49,5.07,7.32,7.32,0,0,0,.1,4.48l1.18,3.46-8.4.68Z" style="fill:#025959"/><path d="M881.5,32.1A6.51,6.51,0,0,0,882,28a16.28,16.28,0,0,0-1.8-4.53l-.39-.71,1.16-.83.54.61a18.5,18.5,0,0,1,3.16,4.58,10.33,10.33,0,0,1,.82,3,10.53,10.53,0,0,1-.16,3.17l-.4,2-4.31-1.3Z" style="fill:#025959"/><path d="M884.43,32.62a7.71,7.71,0,0,1,1.45-4.16,13.05,13.05,0,0,1,2.74-2.68l.64-.5,1,.91-.44.68a10.64,10.64,0,0,0-1.41,2.88,4.06,4.06,0,0,0,0,2.54l.67,2-4.74.39Z" style="fill:#025959"/><path d="M1176.24,42.54a14.72,14.72,0,0,0,1.3-4.3,15.29,15.29,0,0,0-.17-4.7,35.54,35.54,0,0,0-3.95-9.93l-.85-1.56,2.55-1.8,1.17,1.32a40.33,40.33,0,0,1,6.93,10.05,22.07,22.07,0,0,1,1.79,6.51,22.87,22.87,0,0,1-.35,7l-.87,4.33-9.42-2.85Z" style="fill:#025959"/><path d="M1182.68,43.69a17.1,17.1,0,0,1,1-4.91,16.58,16.58,0,0,1,2.22-4.22,29.26,29.26,0,0,1,6-5.86l1.41-1.09,2.14,2-1,1.5a23.8,23.8,0,0,0-3.1,6.29,9.1,9.1,0,0,0,.12,5.58l1.46,4.3-10.44.85Z" style="fill:#025959"/><path d="M167,162.44a6.81,6.81,0,0,0,.54-4.32,16.85,16.85,0,0,0-1.9-4.76l-.4-.74,1.22-.87.56.64a19.06,19.06,0,0,1,3.32,4.82,10.29,10.29,0,0,1,.86,3.12,10.62,10.62,0,0,1-.17,3.33l-.41,2.07-4.54-1.37Z" style="fill:#025959"/><path d="M170.08,163a8.15,8.15,0,0,1,1.52-4.38,13.86,13.86,0,0,1,2.88-2.81l.67-.52,1,.95-.46.72a11.58,11.58,0,0,0-1.49,3,4.42,4.42,0,0,0,.06,2.68l.7,2-5,.41Z" style="fill:#025959"/><path d="M1723.05,153.93a10.65,10.65,0,0,0,.85-6.77,26.5,26.5,0,0,0-3-7.48l-.63-1.17,1.91-1.36.88,1a29.89,29.89,0,0,1,5.22,7.57,16.29,16.29,0,0,1,1.35,4.9,17,17,0,0,1-.26,5.23l-.66,3.26-7.12-2.15Z" style="fill:#025959"/><path d="M1727.9,154.8a12.49,12.49,0,0,1,2.38-6.87,21.64,21.64,0,0,1,4.52-4.42l1.06-.82,1.6,1.5-.73,1.13a17.92,17.92,0,0,0-2.33,4.74,6.88,6.88,0,0,0,.09,4.2l1.1,3.23-7.86.64Z" style="fill:#025959"/><path d="M1188.65,107a14.25,14.25,0,0,0,1.29-4.29,14.84,14.84,0,0,0-.16-4.68,35.16,35.16,0,0,0-3.94-9.89l-.84-1.56,2.53-1.79,1.17,1.32a39.82,39.82,0,0,1,6.9,10,21.57,21.57,0,0,1,1.79,6.49,22.67,22.67,0,0,1-.35,6.93l-.86,4.31-9.39-2.84Z" style="fill:#025959"/><path d="M1195.07,108.19a17.36,17.36,0,0,1,.94-4.9,16.62,16.62,0,0,1,2.22-4.2,28.81,28.81,0,0,1,6-5.84l1.4-1.09,2.13,2-1,1.5a23.76,23.76,0,0,0-3.08,6.27,9,9,0,0,0,.12,5.56l1.46,4.28-10.41.85Z" style="fill:#025959"/><path d="M1769.3,36.32a11.5,11.5,0,0,0,.91-7.3,28.35,28.35,0,0,0-3.2-8l-.69-1.27,2.07-1.46.94,1.08a32.29,32.29,0,0,1,5.62,8.14,17.56,17.56,0,0,1,1.45,5.27,18.07,18.07,0,0,1-.28,5.64l-.7,3.51-7.67-2.32Z" style="fill:#025959"/><path d="M1774.51,37.25a13.54,13.54,0,0,1,2.57-7.4,23.62,23.62,0,0,1,4.86-4.75l1.14-.88,1.73,1.61L1784,27a19.52,19.52,0,0,0-2.52,5.11,7.37,7.37,0,0,0,.11,4.52l1.18,3.47-8.46.7Z" style="fill:#025959"/><path d="M317.91,162.66a12.27,12.27,0,0,0,1-7.8,30.6,30.6,0,0,0-3.43-8.61l-.73-1.35,2.2-1.57,1,1.15a34.73,34.73,0,0,1,6,8.72,18.89,18.89,0,0,1,1.55,5.64,19.66,19.66,0,0,1-.3,6l-.75,3.76-8.21-2.48Z" style="fill:#025959"/><path d="M323.49,163.66a15.16,15.16,0,0,1,.82-4.26,14.57,14.57,0,0,1,1.93-3.65,25.44,25.44,0,0,1,5.2-5.09l1.22-.95,1.85,1.73-.84,1.3A21.08,21.08,0,0,0,331,158.2a7.94,7.94,0,0,0,.11,4.84l1.27,3.72-9.06.74Z" style="fill:#025959"/><path d="M984.92,109.38a10.31,10.31,0,0,0,.83-6.57,25.78,25.78,0,0,0-2.89-7.25l-.61-1.13,1.85-1.32.86,1a29.29,29.29,0,0,1,5,7.33,15.75,15.75,0,0,1,1.31,4.75,16.64,16.64,0,0,1-.25,5.08l-.64,3.16-6.9-2.09Z" style="fill:#025959"/><path d="M989.62,110.22a13,13,0,0,1,.69-3.59,12.47,12.47,0,0,1,1.63-3.07,21,21,0,0,1,4.37-4.28l1-.8,1.55,1.45-.7,1.1a17.47,17.47,0,0,0-2.27,4.59,6.68,6.68,0,0,0,.1,4.07l1.06,3.14-7.62.62Z" style="fill:#025959"/><path d="M724.47,158.7a10.24,10.24,0,0,0,.82-6.5,25.46,25.46,0,0,0-2.86-7.18l-.61-1.13,1.84-1.3.84.95a29,29,0,0,1,5,7.27,15.71,15.71,0,0,1,1.3,4.7,16.61,16.61,0,0,1-.25,5l-.63,3.13-6.84-2.07Z" style="fill:#025959"/><path d="M729.12,159.53a12.62,12.62,0,0,1,.69-3.55,12.28,12.28,0,0,1,1.61-3,20.79,20.79,0,0,1,4.33-4.23l1-.79,1.54,1.43-.7,1.09a17.12,17.12,0,0,0-2.24,4.55,6.48,6.48,0,0,0,.09,4l1.06,3.11-7.55.61Z" style="fill:#025959"/><path d="M1325.87,44.37a9.71,9.71,0,0,0,.77-6.17,24.33,24.33,0,0,0-2.71-6.81l-.58-1.07,1.75-1.23.8.9a27.5,27.5,0,0,1,4.75,6.89,14.85,14.85,0,0,1,1.23,4.47,15.52,15.52,0,0,1-.24,4.76l-.6,3-6.48-2Z" style="fill:#025959"/><path d="M1330.28,45.16a12.05,12.05,0,0,1,.65-3.37,11.83,11.83,0,0,1,1.52-2.89,20,20,0,0,1,4.11-4l1-.75,1.46,1.36-.66,1a16.63,16.63,0,0,0-2.13,4.32,6.26,6.26,0,0,0,.09,3.82l1,3-7.16.58Z" style="fill:#025959"/><path d="M504.54,98.27a14.72,14.72,0,0,0,1.26-4.2,14.88,14.88,0,0,0-.16-4.59,34.77,34.77,0,0,0-3.86-9.69L501,78.27l2.49-1.76,1.14,1.29a39.14,39.14,0,0,1,6.77,9.81A21.28,21.28,0,0,1,513.09,94a22,22,0,0,1-.34,6.78l-.84,4.23-9.2-2.78Z" style="fill:#025959"/><path d="M510.82,99.39a16.61,16.61,0,0,1,.93-4.79,16,16,0,0,1,2.17-4.12,28.14,28.14,0,0,1,5.85-5.72l1.37-1.07,2.08,1.94-.94,1.47a23.62,23.62,0,0,0-3,6.14,8.84,8.84,0,0,0,.13,5.45l1.42,4.19-10.19.84Z" style="fill:#025959"/><path d="M1661.92,101.09a10.73,10.73,0,0,0,.86-6.82,27.1,27.1,0,0,0-3-7.52l-.64-1.18,1.93-1.36.89,1a30.26,30.26,0,0,1,5.24,7.61,16.28,16.28,0,0,1,1.36,4.93,17.25,17.25,0,0,1-.26,5.27l-.66,3.28-7.16-2.17Z" style="fill:#025959"/><path d="M1666.8,102a13,13,0,0,1,.71-3.72,12.74,12.74,0,0,1,1.69-3.19,21.82,21.82,0,0,1,4.54-4.44l1.06-.83,1.62,1.51-.73,1.13a17.87,17.87,0,0,0-2.35,4.77,6.9,6.9,0,0,0,.09,4.23l1.11,3.25-7.91.64Z" style="fill:#025959"/><path d="M1650.3,158.73a7.87,7.87,0,0,0,.63-5,19.84,19.84,0,0,0-2.21-5.57l-.48-.87,1.43-1,.66.74a22.61,22.61,0,0,1,3.88,5.64,12.09,12.09,0,0,1,1,3.65,13.07,13.07,0,0,1-.2,3.9l-.49,2.43-5.3-1.61Z" style="fill:#025959"/><path d="M1653.91,159.37a9.92,9.92,0,0,1,.53-2.75,9.3,9.3,0,0,1,1.25-2.36,16,16,0,0,1,3.36-3.29l.79-.62,1.2,1.12-.55.84a13.74,13.74,0,0,0-1.74,3.53,5.11,5.11,0,0,0,.08,3.13l.81,2.41-5.85.48Z" style="fill:#025959"/><path d="M1830,43a12.23,12.23,0,0,0,1-7.76,30.55,30.55,0,0,0-3.41-8.56l-.73-1.34,2.2-1.56,1,1.15a34.52,34.52,0,0,1,6,8.66,18.69,18.69,0,0,1,1.54,5.61,19.42,19.42,0,0,1-.3,6l-.75,3.73-8.15-2.46Z" style="fill:#025959"/><path d="M1835.58,44a14.81,14.81,0,0,1,.81-4.23,14.48,14.48,0,0,1,1.92-3.64,24.55,24.55,0,0,1,5.16-5.05l1.22-.94,1.84,1.71-.84,1.29a20.82,20.82,0,0,0-2.67,5.43,7.84,7.84,0,0,0,.11,4.81l1.26,3.7-9,.74Z" style="fill:#025959"/><path d="M1794.55,160.44a6.59,6.59,0,0,0,.52-4.16,16.42,16.42,0,0,0-1.83-4.59l-.39-.72,1.18-.83.54.61a18.59,18.59,0,0,1,3.2,4.65,10.08,10.08,0,0,1,.83,3,10.46,10.46,0,0,1-.17,3.21l-.4,2-4.37-1.32Z" style="fill:#025959"/><path d="M1797.52,161a7.76,7.76,0,0,1,1.46-4.22,13.28,13.28,0,0,1,2.77-2.7l.65-.51,1,.92-.45.69a11.35,11.35,0,0,0-1.43,2.91,4.18,4.18,0,0,0,.06,2.58l.67,2-4.79.39Z" style="fill:#025959"/><path d="M1372,101.27a11.5,11.5,0,0,0,.91-7.3,28.71,28.71,0,0,0-3.2-8l-.69-1.26,2.06-1.47,1,1.08a32.1,32.1,0,0,1,5.62,8.15,17.79,17.79,0,0,1,1.46,5.27,18.38,18.38,0,0,1-.29,5.64l-.7,3.51-7.67-2.32Z" style="fill:#025959"/><path d="M1377.22,102.2a13.89,13.89,0,0,1,.76-4,13.74,13.74,0,0,1,1.81-3.42,23.14,23.14,0,0,1,4.86-4.75l1.14-.89,1.73,1.61-.79,1.22a19.57,19.57,0,0,0-2.51,5.1,7.33,7.33,0,0,0,.1,4.53l1.19,3.48-8.47.69Z" style="fill:#025959"/><path d="M363.69,33.25a7.52,7.52,0,0,0,.6-4.8,18.8,18.8,0,0,0-2.11-5.31l-.45-.83,1.36-1,.62.71a21.23,21.23,0,0,1,3.7,5.36,11.34,11.34,0,0,1,1,3.48,11.85,11.85,0,0,1-.19,3.71l-.46,2.31-5.05-1.52Z" style="fill:#025959"/><path d="M367.13,33.87A8.78,8.78,0,0,1,368.82,29a15.72,15.72,0,0,1,3.2-3.13l.75-.58,1.14,1.06-.52.8a12.88,12.88,0,0,0-1.65,3.36,4.78,4.78,0,0,0,.07,3l.78,2.29-5.58.46Z" style="fill:#025959"/><path d="M30.86,37.09A9.63,9.63,0,0,0,31.63,31a23.79,23.79,0,0,0-2.69-6.76l-.57-1.06,1.73-1.23.79.9a27.12,27.12,0,0,1,4.72,6.84,14.88,14.88,0,0,1,1.22,4.43,15.31,15.31,0,0,1-.24,4.73l-.59,3-6.44-2Z" style="fill:#025959"/><path d="M35.24,37.87a11.85,11.85,0,0,1,.65-3.34,11.34,11.34,0,0,1,1.51-2.87,19.66,19.66,0,0,1,4.08-4l1-.74,1.46,1.35-.66,1a16.38,16.38,0,0,0-2.11,4.29,6.17,6.17,0,0,0,.08,3.79l1,2.92-7.11.58Z" style="fill:#025959"/><path d="M946.25,162.88a10.61,10.61,0,0,0,.84-6.76,26.31,26.31,0,0,0-3-7.46l-.64-1.17,1.91-1.36.88,1a29.82,29.82,0,0,1,5.21,7.55,16.3,16.3,0,0,1,1.35,4.89,17.22,17.22,0,0,1-.27,5.22l-.65,3.26-7.11-2.15Z" style="fill:#025959"/><path d="M951.08,163.75a13.2,13.2,0,0,1,.72-3.69,12.24,12.24,0,0,1,1.67-3.17,21.74,21.74,0,0,1,4.5-4.41l1.06-.82,1.6,1.49-.73,1.13a18.28,18.28,0,0,0-2.32,4.73,6.88,6.88,0,0,0,.09,4.2l1.1,3.22-7.85.64Z" style="fill:#025959"/><path d="M1736.09,81.39a7.13,7.13,0,0,0,.57-4.54,18,18,0,0,0-2-5l-.43-.78,1.28-.91.59.67a20.12,20.12,0,0,1,3.5,5.06,10.74,10.74,0,0,1,.9,3.29,11.42,11.42,0,0,1-.17,3.5l-.44,2.19-4.77-1.44Z" style="fill:#025959"/><path d="M1739.34,82a8.46,8.46,0,0,1,1.6-4.6,14.52,14.52,0,0,1,3-3l.71-.55,1.07,1-.48.76a12.13,12.13,0,0,0-1.57,3.17,4.57,4.57,0,0,0,.07,2.82l.73,2.16-5.23.43Z" style="fill:#025959"/><path d="M1117.26,99.8a12.61,12.61,0,0,0,1-8,31.27,31.27,0,0,0-3.52-8.83l-.75-1.38,2.26-1.61,1,1.18a35.44,35.44,0,0,1,6.17,8.94,19.15,19.15,0,0,1,1.59,5.78,20.31,20.31,0,0,1-.31,6.18l-.77,3.86-8.41-2.55Z" style="fill:#025959"/><path d="M1123,100.83a15.11,15.11,0,0,1,.84-4.37,14.86,14.86,0,0,1,2-3.75,25.65,25.65,0,0,1,5.33-5.21l1.25-1,1.89,1.76-.86,1.34a21.32,21.32,0,0,0-2.75,5.6,8.1,8.1,0,0,0,.11,5l1.3,3.81-9.29.76Z" style="fill:#025959"/><path d="M1485.83,41.06a13.07,13.07,0,0,0,1-8.31,32.45,32.45,0,0,0-3.65-9.17l-.78-1.44,2.35-1.67,1.08,1.23a36.79,36.79,0,0,1,6.4,9.28,20,20,0,0,1,1.66,6,21.24,21.24,0,0,1-.32,6.42l-.81,4-8.73-2.64Z" style="fill:#025959"/><path d="M1491.78,42.13a16,16,0,0,1,.87-4.54,15.31,15.31,0,0,1,2.06-3.89,26.65,26.65,0,0,1,5.53-5.42l1.3-1,2,1.84-.89,1.39a22.06,22.06,0,0,0-2.87,5.81,8.48,8.48,0,0,0,.12,5.15l1.35,4-9.65.79Z" style="fill:#025959"/><path d="M82.2,90a6.91,6.91,0,0,0,.56-4.42,17.5,17.5,0,0,0-1.94-4.87L80.4,80l1.25-.88.58.65a19.58,19.58,0,0,1,3.4,4.93,10.49,10.49,0,0,1,.7,6.6l-.42,2.13L81.27,92Z" style="fill:#025959"/><path d="M85.36,90.57a8.22,8.22,0,0,1,1.56-4.48,14.25,14.25,0,0,1,2.94-2.88l.69-.53,1,1-.48.74a12.1,12.1,0,0,0-1.52,3.09,4.47,4.47,0,0,0,.06,2.74l.72,2.1-5.09.42Z" style="fill:#025959"/><path d="M964.65,39.81a9.74,9.74,0,0,0,.77-6.16,24,24,0,0,0-2.71-6.79l-.57-1.06,1.74-1.24.8.91a27.62,27.62,0,0,1,4.74,6.87,15.09,15.09,0,0,1,1.22,4.45,15.5,15.5,0,0,1-.24,4.76l-.59,3-6.47-2Z" style="fill:#025959"/><path d="M969.05,40.59a11.31,11.31,0,0,1,.65-3.35,11.18,11.18,0,0,1,1.52-2.89,20.07,20.07,0,0,1,4.09-4l1-.74L977.74,31l-.67,1A16.85,16.85,0,0,0,975,36.29,6.23,6.23,0,0,0,975,40.1L976,43l-7.14.58Z" style="fill:#025959"/><path d="M345.55,97a7.56,7.56,0,0,0,.61-4.84A19.12,19.12,0,0,0,344,86.78l-.46-.84L345,85l.63.72a21.56,21.56,0,0,1,3.73,5.4,12.15,12.15,0,0,1,1,3.5,12.32,12.32,0,0,1-.19,3.74l-.46,2.33-5.09-1.54Z" style="fill:#025959"/><path d="M349,97.58a9.15,9.15,0,0,1,.51-2.64,8.9,8.9,0,0,1,1.19-2.27A15.7,15.7,0,0,1,354,89.52l.75-.59L355.85,90l-.52.81a12.83,12.83,0,0,0-1.67,3.39,4.85,4.85,0,0,0,.07,3l.79,2.31-5.62.46Z" style="fill:#025959"/><path d="M1883.79,41.4a12,12,0,0,0,1-7.65,29.63,29.63,0,0,0-3.36-8.45l-.72-1.33,2.17-1.53,1,1.12a34,34,0,0,1,5.9,8.55,18.6,18.6,0,0,1,1.52,5.54,19.26,19.26,0,0,1-.29,5.92l-.74,3.68-8-2.43Z" style="fill:#025959"/><path d="M1889.27,42.38a14.54,14.54,0,0,1,.81-4.18,14.24,14.24,0,0,1,1.89-3.59,24.16,24.16,0,0,1,5.1-5l1.19-.93,1.82,1.69-.82,1.28a20.11,20.11,0,0,0-2.64,5.35,7.73,7.73,0,0,0,.11,4.75l1.24,3.65-8.89.73Z" style="fill:#025959"/><path d="M604.4,93.47a14.19,14.19,0,0,0,1.29-4.28,14.79,14.79,0,0,0-.16-4.67,35.11,35.11,0,0,0-3.94-9.88l-.84-1.55,2.53-1.8,1.17,1.32a39.94,39.94,0,0,1,6.9,10,21.79,21.79,0,0,1,1.78,6.48,22.62,22.62,0,0,1-.35,6.92l-.86,4.31-9.38-2.84Z" style="fill:#025959"/><path d="M610.81,94.62a17.36,17.36,0,0,1,.94-4.89A16.38,16.38,0,0,1,614,85.54a28.53,28.53,0,0,1,6-5.84l1.4-1.09,2.12,2-1,1.5a23.86,23.86,0,0,0-3.08,6.26,9.12,9.12,0,0,0,.12,5.56L621,98.18l-10.4.85Z" style="fill:#025959"/><path d="M1514.07,152.09a7.52,7.52,0,0,0,.59-4.78,18.59,18.59,0,0,0-2.1-5.28l-.45-.83,1.36-1,.62.71a21.06,21.06,0,0,1,3.68,5.34,11.49,11.49,0,0,1,1,3.46,12,12,0,0,1-.18,3.69l-.46,2.31-5-1.52Z" style="fill:#025959"/><path d="M1517.49,152.7a8.81,8.81,0,0,1,1.68-4.85,15.31,15.31,0,0,1,3.19-3.11l.74-.58,1.14,1.05-.52.8a12.78,12.78,0,0,0-1.64,3.35,4.8,4.8,0,0,0,.06,3l.78,2.28-5.55.46Z" style="fill:#025959"/><path d="M1305.74,156.4a7.27,7.27,0,0,0,.58-4.65,18.24,18.24,0,0,0-2-5.15l-.44-.8,1.32-.94.6.69a20.59,20.59,0,0,1,3.59,5.2,11.28,11.28,0,0,1,.93,3.37,11.74,11.74,0,0,1-.18,3.6l-.45,2.25-4.9-1.49Z" style="fill:#025959"/><path d="M1309.07,157a9.52,9.52,0,0,1,.49-2.54,9,9,0,0,1,1.16-2.19,15,15,0,0,1,3.1-3l.73-.57,1.1,1-.5.78a12.43,12.43,0,0,0-1.6,3.26,4.72,4.72,0,0,0,.06,2.89l.76,2.22-5.41.44Z" style="fill:#025959"/><path d="M1442,157.9a11.41,11.41,0,0,0,.91-7.27,28.62,28.62,0,0,0-3.19-8l-.69-1.26,2.06-1.45L1442,141a32.24,32.24,0,0,1,5.6,8.11,17.5,17.5,0,0,1,1.45,5.26,18.58,18.58,0,0,1-.28,5.62l-.7,3.49-7.64-2.31Z" style="fill:#025959"/><path d="M1447.2,158.83a13.82,13.82,0,0,1,.76-4,13.58,13.58,0,0,1,1.8-3.4,23.24,23.24,0,0,1,4.84-4.74l1.14-.88,1.72,1.61-.78,1.21a19.32,19.32,0,0,0-2.51,5.08,7.33,7.33,0,0,0,.11,4.51l1.17,3.47-8.43.69Z" style="fill:#025959"/><path d="M1373.6,163.5a12.44,12.44,0,0,0,1-7.9,30.71,30.71,0,0,0-3.47-8.71l-.74-1.37,2.23-1.58,1,1.16a34.65,34.65,0,0,1,6.08,8.82,19.37,19.37,0,0,1,1.58,5.71,19.8,19.8,0,0,1-.31,6.1l-.76,3.8-8.3-2.51Z" style="fill:#025959"/><path d="M1379.25,164.51a15,15,0,0,1,.83-4.31,15.29,15.29,0,0,1,2-3.7,25.51,25.51,0,0,1,5.26-5.15l1.24-1,1.87,1.75-.85,1.32a20.91,20.91,0,0,0-2.72,5.52,8.06,8.06,0,0,0,.11,4.9l1.28,3.77-9.16.75Z" style="fill:#025959"/><path d="M1690.61,32.75a6.53,6.53,0,0,0,.52-4.16,16.39,16.39,0,0,0-1.82-4.59l-.39-.71,1.17-.84.54.61a18.53,18.53,0,0,1,3.2,4.64,10.23,10.23,0,0,1,.83,3,10.46,10.46,0,0,1-.16,3.21l-.4,2-4.37-1.32Z" style="fill:#025959"/><path d="M1693.58,33.28a7.77,7.77,0,0,1,1.47-4.22,13.56,13.56,0,0,1,2.76-2.71l.65-.5,1,.92-.45.69a11.19,11.19,0,0,0-1.43,2.91,4.26,4.26,0,0,0,.06,2.58l.67,2-4.79.39Z" style="fill:#025959"/><path d="M97.76,33.7a7.85,7.85,0,0,0,.63-5,19.77,19.77,0,0,0-2.2-5.51l-.47-.86,1.42-1,.65.73a22.5,22.5,0,0,1,3.84,5.58,12.21,12.21,0,0,1,1,3.61,12.79,12.79,0,0,1-.2,3.86l-.48,2.4L96.7,35.93Z" style="fill:#025959"/><path d="M101.33,34.34a9.79,9.79,0,0,1,.53-2.73,9.44,9.44,0,0,1,1.23-2.34A16.17,16.17,0,0,1,106.42,26l.78-.61,1.18,1.11-.53.83a13,13,0,0,0-1.72,3.49,5,5,0,0,0,.07,3.1l.81,2.38-5.8.47Z" style="fill:#025959"/><path d="M1583.78,158.34a7.48,7.48,0,0,0,.59-4.7,18.63,18.63,0,0,0-2.07-5.2l-.44-.81,1.33-.95.61.7a21,21,0,0,1,3.62,5.25,11.25,11.25,0,0,1,.94,3.41,11.94,11.94,0,0,1-.18,3.63l-.46,2.27-4.94-1.5Z" style="fill:#025959"/><path d="M1587.14,158.94a9.3,9.3,0,0,1,.5-2.56,8.91,8.91,0,0,1,1.16-2.21,15.14,15.14,0,0,1,3.14-3.07l.73-.57,1.12,1-.51.79a12.38,12.38,0,0,0-1.62,3.29,4.74,4.74,0,0,0,.07,2.92l.76,2.24-5.46.45Z" style="fill:#025959"/><path d="M239.8,163.05a11.32,11.32,0,0,0,.91-7.24,28.18,28.18,0,0,0-3.18-8l-.68-1.26,2.05-1.45.94,1.07a32.14,32.14,0,0,1,5.58,8.09,17.49,17.49,0,0,1,1.44,5.24,18.39,18.39,0,0,1-.28,5.59l-.7,3.49-7.61-2.31Z" style="fill:#025959"/><path d="M245,164a13.91,13.91,0,0,1,.77-3.95,13.08,13.08,0,0,1,1.79-3.4,23.3,23.3,0,0,1,4.82-4.72l1.13-.88,1.72,1.6-.78,1.21a19.17,19.17,0,0,0-2.49,5.07,7.2,7.2,0,0,0,.1,4.49l1.17,3.46-8.4.68Z" style="fill:#025959"/><path d="M780.36,30.78a6.86,6.86,0,0,0,.54-4.34,17,17,0,0,0-1.91-4.8l-.41-.75,1.23-.87.57.64a19.29,19.29,0,0,1,3.34,4.85,10.42,10.42,0,0,1,.87,3.14,11.13,11.13,0,0,1-.17,3.36L784,34.1l-4.57-1.38Z" style="fill:#025959"/><path d="M783.46,31.33a8.12,8.12,0,0,1,1.53-4.4,14,14,0,0,1,2.9-2.83l.68-.53,1,1-.47.73a11.37,11.37,0,0,0-1.5,3,4.49,4.49,0,0,0,.06,2.7l.71,2.07-5,.41Z" style="fill:#025959"/><path d="M1248.57,42a13,13,0,0,0,1-8.25,32.07,32.07,0,0,0-3.62-9.12l-.78-1.43,2.34-1.65,1.07,1.21a36.82,36.82,0,0,1,6.36,9.23,20.35,20.35,0,0,1,1.65,6,20.68,20.68,0,0,1-.33,6.38l-.79,4-8.68-2.62Z" style="fill:#025959"/><path d="M1254.48,43a15.47,15.47,0,0,1,.87-4.51,15,15,0,0,1,2-3.87,26.55,26.55,0,0,1,5.5-5.38l1.29-1,2,1.83-.89,1.37a22.28,22.28,0,0,0-2.85,5.78,8.38,8.38,0,0,0,.12,5.12l1.34,3.94-9.58.78Z" style="fill:#025959"/><path d="M674.27,33.26a6.66,6.66,0,0,0,.54-4.27,16.74,16.74,0,0,0-1.88-4.72l-.4-.74,1.21-.85.55.63a18.68,18.68,0,0,1,3.29,4.77,10.38,10.38,0,0,1,.85,3.09,10.68,10.68,0,0,1-.16,3.29l-.41,2.06-4.49-1.36Z" style="fill:#025959"/><path d="M677.33,33.8a8,8,0,0,1,1.5-4.33,13.81,13.81,0,0,1,2.85-2.78l.67-.52,1,.94-.46.72a11.13,11.13,0,0,0-1.47,3,4.33,4.33,0,0,0,.06,2.65l.69,2-4.93.4Z" style="fill:#025959"/><path d="M542.76,58.59a28.74,28.74,0,0,1-.82-10.6,59.68,59.68,0,0,1,2-10l.23-.85,1.61.34-.12.87a57.77,57.77,0,0,0-.67,9.76,25.17,25.17,0,0,0,1.89,9.08l.87,2-4.42,1.52Z" style="fill:#025959"/><path d="M544.27,59a21,21,0,0,1,1.22-7.67,42.3,42.3,0,0,1,3.11-6.66l.42-.77,1.46.65-.28.83A40.68,40.68,0,0,0,548.47,52a17.24,17.24,0,0,0,.16,6.42l.49,2.15-4.76.56Z" style="fill:#025959"/><path d="M537.89,58.45a17.45,17.45,0,0,0,.16-6.42,40.68,40.68,0,0,0-1.73-6.69l-.28-.83,1.46-.65.42.77a42.26,42.26,0,0,1,3.1,6.66A20.79,20.79,0,0,1,542.24,59l-.08,2.2-4.77-.56Z" style="fill:#025959"/><path d="M1498.13,50.49a26.93,26.93,0,0,1-.76-10,56.58,56.58,0,0,1,1.89-9.39l.22-.8,1.51.31-.12.82a54.84,54.84,0,0,0-.63,9.16,23.71,23.71,0,0,0,1.78,8.52l.81,1.9-4.15,1.42Z" style="fill:#025959"/><path d="M1499.56,50.84a19.54,19.54,0,0,1,1.14-7.2,40.5,40.5,0,0,1,2.91-6.24l.4-.72,1.37.6-.27.78a38.69,38.69,0,0,0-1.62,6.28,16.17,16.17,0,0,0,.15,6l.46,2-4.46.52Z" style="fill:#025959"/><path d="M1493.56,50.36a16,16,0,0,0,.15-6,37.69,37.69,0,0,0-1.62-6.28l-.26-.78,1.37-.6.4.72a40.5,40.5,0,0,1,2.91,6.24,19.75,19.75,0,0,1,1.14,7.2l-.08,2.06-4.47-.52Z" style="fill:#025959"/><path d="M127.85,164.89a33.58,33.58,0,0,1-.95-12.37,69.75,69.75,0,0,1,2.35-11.69l.27-1,1.88.38-.14,1a67.85,67.85,0,0,0-.79,11.39,29.22,29.22,0,0,0,2.22,10.59l1,2.36-5.16,1.76Z" style="fill:#025959"/><path d="M129.62,165.32a24.37,24.37,0,0,1,1.42-8.95,49.67,49.67,0,0,1,3.62-7.76l.5-.9,1.69.75-.32,1a47.27,47.27,0,0,0-2,7.81,19.92,19.92,0,0,0,.19,7.48l.57,2.51-5.55.65Z" style="fill:#025959"/><path d="M122.17,164.72a20.14,20.14,0,0,0,.18-7.48,46.25,46.25,0,0,0-2-7.81l-.33-1,1.7-.75.5.9a49.67,49.67,0,0,1,3.62,7.76,24.58,24.58,0,0,1,1.42,8.95l-.1,2.56-5.56-.65Z" style="fill:#025959"/><path d="M1604.54,45a31.78,31.78,0,0,1-.9-11.76,65.39,65.39,0,0,1,2.24-11.12l.26-.94,1.78.37-.14,1a64.25,64.25,0,0,0-.74,10.83,27.76,27.76,0,0,0,2.1,10.08l1,2.24-4.91,1.68Z" style="fill:#025959"/><path d="M1606.23,45.37a23.14,23.14,0,0,1,1.35-8.51,47.16,47.16,0,0,1,3.44-7.39l.47-.85,1.62.71-.31.93a44.65,44.65,0,0,0-1.92,7.43,19,19,0,0,0,.18,7.11l.54,2.39-5.28.62Z" style="fill:#025959"/><path d="M1599.14,44.8a18.81,18.81,0,0,0,.17-7.11,44.61,44.61,0,0,0-1.91-7.43l-.31-.93,1.61-.71.48.85a47.16,47.16,0,0,1,3.44,7.39,23.35,23.35,0,0,1,1.35,8.51l-.09,2.44-5.29-.62Z" style="fill:#025959"/><path d="M1878.28,152.26a46.5,46.5,0,0,1-1.32-17.18,96.92,96.92,0,0,1,3.27-16.24l.38-1.37,2.6.54-.19,1.41a92.39,92.39,0,0,0-1.09,15.82A40.79,40.79,0,0,0,1885,150l1.41,3.28-7.17,2.45Z" style="fill:#025959"/><path d="M1880.74,152.86a33.84,33.84,0,0,1,2-12.44,69.06,69.06,0,0,1,5-10.78l.69-1.25,2.37,1.05-.46,1.35a66.27,66.27,0,0,0-2.8,10.84,27.84,27.84,0,0,0,.26,10.4l.8,3.48-7.72.92Z" style="fill:#025959"/><path d="M1870.39,152a28.05,28.05,0,0,0,.26-10.4,65.32,65.32,0,0,0-2.81-10.84l-.45-1.35,2.36-1.05.69,1.25a68.19,68.19,0,0,1,5,10.78,34,34,0,0,1,2,12.44l-.14,3.57-7.72-.92Z" style="fill:#025959"/><path d="M1404.81,152.57a37.23,37.23,0,0,1-1-13.68,78,78,0,0,1,2.6-12.92l.3-1.09,2.07.43-.15,1.12a74.82,74.82,0,0,0-.87,12.59,32.46,32.46,0,0,0,2.45,11.72l1.12,2.61-5.71,2Z" style="fill:#025959"/><path d="M1406.77,153.05a27.1,27.1,0,0,1,1.57-9.9,54.91,54.91,0,0,1,4-8.59l.55-1,1.88.83-.36,1.08a52.2,52.2,0,0,0-2.23,8.63,22,22,0,0,0,.21,8.27l.63,2.78-6.14.72Z" style="fill:#025959"/><path d="M1398.53,152.38a22,22,0,0,0,.2-8.27,51.23,51.23,0,0,0-2.23-8.63l-.36-1.08,1.88-.83.55,1a54,54,0,0,1,4,8.59,27.11,27.11,0,0,1,1.58,9.9l-.11,2.83-6.15-.72Z" style="fill:#025959"/><path d="M30.88,76.76a52.22,52.22,0,0,1-1.75-10.25,60.43,60.43,0,0,1,.18-10.17A115.84,115.84,0,0,1,33.2,37.05l.45-1.64,3.09.65-.23,1.67a111.29,111.29,0,0,0-1.29,18.81A48.16,48.16,0,0,0,38.87,74l1.67,3.89L32,80.84Z" style="fill:#025959"/><path d="M33.8,77.48A40.47,40.47,0,0,1,36.15,62.7a82.67,82.67,0,0,1,6-12.82L43,48.4l2.8,1.24-.54,1.61a77,77,0,0,0-3.32,12.88,33,33,0,0,0,.3,12.36l1,4.14L34,81.71Z" style="fill:#025959"/><path d="M21.5,76.49a33.2,33.2,0,0,0,.31-12.36,78,78,0,0,0-3.33-12.88l-.54-1.61,2.81-1.24.82,1.48a81.72,81.72,0,0,1,6,12.82,40.26,40.26,0,0,1,2.35,14.78l-.16,4.23-9.18-1.08Z" style="fill:#025959"/><path d="M1554.71,104.56a39.82,39.82,0,0,1-1.12-14.64,82.24,82.24,0,0,1,2.79-13.83l.32-1.17,2.22.46-.17,1.2a79.16,79.16,0,0,0-.92,13.48,34.68,34.68,0,0,0,2.61,12.54l1.2,2.8-6.11,2.08Z" style="fill:#025959"/><path d="M1556.81,105.08a28.87,28.87,0,0,1,1.69-10.6,58.1,58.1,0,0,1,4.28-9.19l.59-1.07,2,.89-.39,1.16a55.57,55.57,0,0,0-2.38,9.24,23.46,23.46,0,0,0,.22,8.86l.68,3-6.58.78Z" style="fill:#025959"/><path d="M1548,104.37a23.67,23.67,0,0,0,.22-8.86,54.66,54.66,0,0,0-2.39-9.24l-.38-1.16,2-.89.59,1.07a58.1,58.1,0,0,1,4.28,9.19,28.87,28.87,0,0,1,1.69,10.6l-.12,3-6.58-.78Z" style="fill:#025959"/><path d="M1700.56,58.21a45.61,45.61,0,0,1-1.29-16.74,95.22,95.22,0,0,1,3.19-15.81l.37-1.33,2.53.52-.19,1.38a91.56,91.56,0,0,0-1.06,15.4,39.64,39.64,0,0,0,3,14.34l1.36,3.19-7,2.38Z" style="fill:#025959"/><path d="M1703,58.79a32.89,32.89,0,0,1,1.92-12.11,67.73,67.73,0,0,1,4.89-10.5l.68-1.22,2.3,1-.44,1.32a62.66,62.66,0,0,0-2.73,10.56,27,27,0,0,0,.25,10.12l.78,3.39-7.52.89Z" style="fill:#025959"/><path d="M1692.88,58a27.2,27.2,0,0,0,.25-10.12,64.63,64.63,0,0,0-2.73-10.56L1690,36l2.3-1,.67,1.22a66.86,66.86,0,0,1,4.9,10.5,33.31,33.31,0,0,1,1.92,12.11l-.13,3.47-7.52-.89Z" style="fill:#025959"/><path d="M664.74,118.82a50,50,0,0,1-1.66-9.8,58.27,58.27,0,0,1,.16-9.72A111.13,111.13,0,0,1,667,80.86l.43-1.56,3,.61-.22,1.6a105.59,105.59,0,0,0-1.24,18,46.11,46.11,0,0,0,3.49,16.71l1.59,3.73-8.15,2.78Z" style="fill:#025959"/><path d="M667.54,119.5a38.76,38.76,0,0,1,2.24-14.13,79.38,79.38,0,0,1,5.71-12.25l.79-1.41L679,92.89l-.51,1.54a73.24,73.24,0,0,0-3.18,12.32,31.49,31.49,0,0,0,.29,11.8l.9,4-8.76,1Z" style="fill:#025959"/><path d="M655.78,118.55a31.7,31.7,0,0,0,.3-11.8,74.26,74.26,0,0,0-3.19-12.32l-.51-1.54,2.68-1.18.79,1.41a79.38,79.38,0,0,1,5.71,12.25,38.76,38.76,0,0,1,2.24,14.13l-.16,4-8.76-1Z" style="fill:#025959"/><path d="M468,60.12a33.91,33.91,0,0,1-1-12.47,70.92,70.92,0,0,1,2.37-11.77l.28-1,1.88.4-.14,1a67.84,67.84,0,0,0-.78,11.48,29.28,29.28,0,0,0,2.23,10.67l1,2.38-5.2,1.78Z" style="fill:#025959"/><path d="M469.76,60.56a24.59,24.59,0,0,1,1.44-9,49.5,49.5,0,0,1,3.64-7.82l.5-.9,1.72.75-.33,1a45.93,45.93,0,0,0-2,7.86,20,20,0,0,0,.18,7.54l.58,2.53-5.6.66Z" style="fill:#025959"/><path d="M462.25,60a20,20,0,0,0,.19-7.54,47.86,47.86,0,0,0-2-7.86l-.33-1,1.71-.75.51.9a50.41,50.41,0,0,1,3.64,7.82,24.38,24.38,0,0,1,1.43,9l-.1,2.58-5.59-.66Z" style="fill:#025959"/><path d="M886.16,111a49.42,49.42,0,0,1-1.64-9.61,57.19,57.19,0,0,1,.17-9.54,108.15,108.15,0,0,1,3.65-18.09l.42-1.53,2.9.6-.22,1.57A104.66,104.66,0,0,0,890.23,92a45.34,45.34,0,0,0,3.43,16.4l1.56,3.65-8,2.74Z" style="fill:#025959"/><path d="M888.91,111.64a37.75,37.75,0,0,1,2.2-13.86,76.84,76.84,0,0,1,5.6-12l.77-1.39,2.63,1.16-.5,1.51a71.47,71.47,0,0,0-3.12,12.09,31,31,0,0,0,.28,11.58l.89,3.89-8.6,1Z" style="fill:#025959"/><path d="M877.37,110.71a31,31,0,0,0,.28-11.58A71.47,71.47,0,0,0,874.53,87l-.5-1.51,2.63-1.16.77,1.39a76.84,76.84,0,0,1,5.6,12,37.75,37.75,0,0,1,2.2,13.86l-.15,4-8.6-1Z" style="fill:#025959"/><path d="M324.33,60a30.47,30.47,0,0,1-.86-11.2,63.47,63.47,0,0,1,2.14-10.59l.24-.89,1.7.35-.13.92a61.35,61.35,0,0,0-.71,10.32,26.47,26.47,0,0,0,2,9.59l.91,2.14L325,62.2Z" style="fill:#025959"/><path d="M325.94,60.35a22.09,22.09,0,0,1,1.29-8.11,44.73,44.73,0,0,1,3.27-7l.45-.81,1.54.68-.29.88A42.3,42.3,0,0,0,330.37,53a18.31,18.31,0,0,0,.17,6.78l.52,2.27-5,.6Z" style="fill:#025959"/><path d="M319.19,59.81a18.31,18.31,0,0,0,.17-6.78A42.3,42.3,0,0,0,317.53,46l-.29-.88,1.54-.68.45.81a45.65,45.65,0,0,1,3.27,7,22.09,22.09,0,0,1,1.29,8.11l-.09,2.33-5-.6Z" style="fill:#025959"/><path d="M1322.8,155.17a50.08,50.08,0,0,1-1.42-18.4,104,104,0,0,1,3.51-17.37l.4-1.47,2.79.57-.21,1.52A99.34,99.34,0,0,0,1326.7,137a43.59,43.59,0,0,0,3.29,15.76l1.5,3.5-7.67,2.63Z" style="fill:#025959"/><path d="M1325.43,155.81a36.31,36.31,0,0,1,2.12-13.31,73,73,0,0,1,5.38-11.54l.74-1.34,2.52,1.12-.48,1.45a69.51,69.51,0,0,0-3,11.6,29.82,29.82,0,0,0,.28,11.13l.85,3.73-8.26,1Z" style="fill:#025959"/><path d="M1314.35,154.92a29.82,29.82,0,0,0,.28-11.13,70.5,70.5,0,0,0-3-11.6l-.48-1.45,2.52-1.12.74,1.34a73,73,0,0,1,5.38,11.54,36.31,36.31,0,0,1,2.12,13.31l-.15,3.81-8.26-1Z" style="fill:#025959"/><path d="M209.08,175.66a55.84,55.84,0,0,1-1.85-10.9,64.86,64.86,0,0,1,.18-10.81,123.08,123.08,0,0,1,4.14-20.52l.48-1.73,3.29.68-.25,1.78a118.16,118.16,0,0,0-1.37,20,51.34,51.34,0,0,0,3.88,18.6l1.77,4.14-9.07,3.1Z" style="fill:#025959"/><path d="M212.2,176.42a42.67,42.67,0,0,1,2.49-15.71A87.65,87.65,0,0,1,221,147.08l.88-1.58,3,1.32-.57,1.71a82.23,82.23,0,0,0-3.54,13.7,35.23,35.23,0,0,0,.32,13.14l1,4.4-9.75,1.15Z" style="fill:#025959"/><path d="M199.11,175.37a35.23,35.23,0,0,0,.33-13.14,83.22,83.22,0,0,0-3.54-13.7l-.57-1.71,3-1.32.87,1.58a86.78,86.78,0,0,1,6.36,13.63A42.88,42.88,0,0,1,208,176.42l-.17,4.5-9.76-1.15Z" style="fill:#025959"/><path d="M1194.83,109.34a51.2,51.2,0,0,1-1.74-10.21,61.15,61.15,0,0,1,.17-10.14,115.21,115.21,0,0,1,3.88-19.22l.44-1.62,3.08.64-.23,1.67a111.31,111.31,0,0,0-1.28,18.73,48.08,48.08,0,0,0,3.64,17.43l1.66,3.88-8.5,2.9Z" style="fill:#025959"/><path d="M1197.74,110.05a40.14,40.14,0,0,1,2.34-14.72,81.58,81.58,0,0,1,6-12.77l.82-1.48,2.79,1.24-.53,1.6a77.54,77.54,0,0,0-3.32,12.84,32.87,32.87,0,0,0,.31,12.3l.94,4.13-9.14,1.08Z" style="fill:#025959"/><path d="M1185.48,109.06a32.87,32.87,0,0,0,.31-12.3,76.57,76.57,0,0,0-3.32-12.84l-.53-1.6,2.79-1.24.82,1.48a81.58,81.58,0,0,1,6,12.77,40.14,40.14,0,0,1,2.34,14.72l-.16,4.22-9.14-1.08Z" style="fill:#025959"/><path d="M964.2,59.38a43.6,43.6,0,0,1-1.23-16,90.85,90.85,0,0,1,3-15.09l.35-1.27,2.41.5-.18,1.31a87.43,87.43,0,0,0-1,14.7,37.78,37.78,0,0,0,2.86,13.68l1.3,3-6.66,2.28Z" style="fill:#025959"/><path d="M966.49,59.94a31.65,31.65,0,0,1,1.83-11.56,63.41,63.41,0,0,1,4.68-10l.64-1.16,2.19,1-.42,1.26a60.92,60.92,0,0,0-2.6,10.07,25.81,25.81,0,0,0,.24,9.66l.74,3.24-7.17.84Z" style="fill:#025959"/><path d="M956.87,59.16a26,26,0,0,0,.24-9.66,60.92,60.92,0,0,0-2.6-10.07l-.42-1.26,2.19-1,.64,1.16a63.38,63.38,0,0,1,4.67,10,31.66,31.66,0,0,1,1.84,11.56l-.13,3.3-7.17-.84Z" style="fill:#025959"/><path d="M367.28,150.23a28.48,28.48,0,0,1-.8-10.43,58.86,58.86,0,0,1,2-9.85l.23-.83,1.58.32-.12.86a56,56,0,0,0-.66,9.6,24.65,24.65,0,0,0,1.86,8.93l.85,2-4.35,1.49Z" style="fill:#025959"/><path d="M368.78,150.59A20.59,20.59,0,0,1,370,143a41.18,41.18,0,0,1,3-6.54l.41-.76,1.44.64-.28.82a40.08,40.08,0,0,0-1.7,6.58,16.87,16.87,0,0,0,.16,6.31l.48,2.11-4.68.55Z" style="fill:#025959"/><path d="M362.5,150.09a17.08,17.08,0,0,0,.15-6.31,39.1,39.1,0,0,0-1.7-6.58l-.27-.82,1.43-.64.42.76a42.08,42.08,0,0,1,3.05,6.54,20.59,20.59,0,0,1,1.2,7.55l-.08,2.16L362,152.2Z" style="fill:#025959"/><path d="M1152.48,39a26.67,26.67,0,0,1-.75-9.78,54.79,54.79,0,0,1,1.86-9.24l.22-.78,1.48.3-.12.81a53.9,53.9,0,0,0-.61,9,23,23,0,0,0,1.75,8.38l.79,1.86L1153,41Z" style="fill:#025959"/><path d="M1153.88,39.37a19.55,19.55,0,0,1,1.12-7.08,40.13,40.13,0,0,1,2.86-6.14l.4-.71,1.34.6-.26.77a38.36,38.36,0,0,0-1.59,6.17,15.85,15.85,0,0,0,.15,5.92l.45,2-4.39.52Z" style="fill:#025959"/><path d="M1148,38.9a15.85,15.85,0,0,0,.14-5.92,36.37,36.37,0,0,0-1.59-6.17l-.26-.77,1.35-.6.39.71a39.2,39.2,0,0,1,2.86,6.14,19.34,19.34,0,0,1,1.13,7.08l-.08,2-4.4-.52Z" style="fill:#025959"/><path d="M1592.74,167.11a30.75,30.75,0,0,1-.87-11.29,65.14,65.14,0,0,1,2.15-10.66l.25-.9,1.71.35-.13.93a61.13,61.13,0,0,0-.71,10.39,26.6,26.6,0,0,0,2,9.67l.92,2.16-4.71,1.61Z" style="fill:#025959"/><path d="M1594.36,167.51a22.14,22.14,0,0,1,1.3-8.17,45.08,45.08,0,0,1,3.3-7.09l.45-.82,1.55.69-.29.89a41.69,41.69,0,0,0-1.84,7.12A18.37,18.37,0,0,0,1599,167l.53,2.29-5.07.6Z" style="fill:#025959"/><path d="M1587.56,167a18.58,18.58,0,0,0,.17-6.83,43.63,43.63,0,0,0-1.84-7.12l-.3-.89,1.55-.69.45.82a46,46,0,0,1,3.31,7.09,22.34,22.34,0,0,1,1.29,8.17l-.09,2.34-5.07-.6Z" style="fill:#025959"/><path d="M167.55,48.24a44.83,44.83,0,0,1-1.27-16.48,93.23,93.23,0,0,1,3.14-15.56l.36-1.32,2.5.52-.19,1.35a89.87,89.87,0,0,0-1,15.17A38.89,38.89,0,0,0,174,46l1.34,3.14-6.88,2.35Z" style="fill:#025959"/><path d="M169.91,48.82a32.57,32.57,0,0,1,1.89-11.93,66.55,66.55,0,0,1,4.82-10.34l.66-1.19,2.27,1-.44,1.3a62.54,62.54,0,0,0-2.68,10.39,26.62,26.62,0,0,0,.25,10l.76,3.34-7.4.87Z" style="fill:#025959"/><path d="M160,48a26.62,26.62,0,0,0,.25-10,61.62,61.62,0,0,0-2.69-10.39l-.43-1.3,2.26-1,.67,1.19a67.48,67.48,0,0,1,4.82,10.34,32.57,32.57,0,0,1,1.89,11.93l-.13,3.41-7.4-.87Z" style="fill:#025959"/><path d="M1805.28,163.64a26.3,26.3,0,0,1-.75-9.71,55.08,55.08,0,0,1,1.85-9.18l.21-.78,1.48.31-.11.8a52.18,52.18,0,0,0-.62,8.94,23.08,23.08,0,0,0,1.74,8.32l.79,1.86-4,1.38Z" style="fill:#025959"/><path d="M1806.67,164a19.07,19.07,0,0,1,1.12-7,37.71,37.71,0,0,1,2.84-6.09l.39-.71,1.33.59-.25.77a37.65,37.65,0,0,0-1.59,6.13,15.79,15.79,0,0,0,.15,5.87l.45,2-4.36.52Z" style="fill:#025959"/><path d="M1800.82,163.51a15.8,15.8,0,0,0,.14-5.87,36.61,36.61,0,0,0-1.58-6.13l-.26-.77,1.34-.59.39.71a39.49,39.49,0,0,1,2.84,6.09,19.28,19.28,0,0,1,1.12,7l-.08,2-4.36-.52Z" style="fill:#025959"/><path d="M1648.78,122.11a45.19,45.19,0,0,1-1.27-16.54,93.86,93.86,0,0,1,3.15-15.63l.37-1.32,2.5.52-.19,1.35a90.69,90.69,0,0,0-1,15.24,39.21,39.21,0,0,0,3,14.17l1.35,3.15-6.91,2.36Z" style="fill:#025959"/><path d="M1651.15,122.69a32.55,32.55,0,0,1,1.91-12,66.72,66.72,0,0,1,4.83-10.39l.67-1.2,2.27,1-.43,1.3a63.17,63.17,0,0,0-2.7,10.44,26.83,26.83,0,0,0,.25,10l.77,3.35-7.43.88Z" style="fill:#025959"/><path d="M1641.19,121.89a26.83,26.83,0,0,0,.25-10,63.17,63.17,0,0,0-2.7-10.44l-.44-1.3,2.28-1,.66,1.2a65.85,65.85,0,0,1,4.84,10.39,32.55,32.55,0,0,1,1.9,12l-.13,3.43-7.43-.88Z" style="fill:#025959"/><path d="M1490.27,151.31a26.47,26.47,0,0,1-.76-9.78,55.49,55.49,0,0,1,1.87-9.23l.21-.79,1.48.31-.11.8a53,53,0,0,0-.62,9,23.4,23.4,0,0,0,1.75,8.38l.8,1.86-4.08,1.4Z" style="fill:#025959"/><path d="M1491.67,151.65a19.34,19.34,0,0,1,1.12-7.08,39.09,39.09,0,0,1,2.86-6.13l.39-.71,1.35.59-.26.77a36.37,36.37,0,0,0-1.59,6.17,15.8,15.8,0,0,0,.14,5.91l.46,2-4.4.51Z" style="fill:#025959"/><path d="M1485.78,151.17a15.8,15.8,0,0,0,.14-5.91,36.37,36.37,0,0,0-1.59-6.17l-.26-.77,1.35-.59.39.71a39.09,39.09,0,0,1,2.86,6.13,19.34,19.34,0,0,1,1.12,7.08l-.08,2-4.39-.51Z" style="fill:#025959"/><path d="M618,55.73a41.27,41.27,0,0,1-1.17-15.18,86.31,86.31,0,0,1,2.89-14.34L620,25l2.3.47-.17,1.25a81.86,81.86,0,0,0-1,14,36,36,0,0,0,2.72,13l1.23,2.89-6.33,2.17Z" style="fill:#025959"/><path d="M620.15,56.26a29.93,29.93,0,0,1,1.75-11,60.54,60.54,0,0,1,4.43-9.52l.62-1.11,2.08.93-.4,1.19a58,58,0,0,0-2.47,9.58,24.73,24.73,0,0,0,.22,9.18l.71,3.08-6.82.8Z" style="fill:#025959"/><path d="M611,55.52a24.73,24.73,0,0,0,.22-9.18,57,57,0,0,0-2.47-9.58l-.4-1.19,2.09-.93.61,1.11a61.48,61.48,0,0,1,4.44,9.52,30.14,30.14,0,0,1,1.74,11l-.12,3.14-6.82-.8Z" style="fill:#025959"/><path d="M1776.38,104.89a26.89,26.89,0,0,1-.76-9.86,56.77,56.77,0,0,1,1.88-9.32l.22-.79,1.49.31-.11.81a52.85,52.85,0,0,0-.62,9.08,23.16,23.16,0,0,0,1.76,8.45l.8,1.88-4.11,1.4Z" style="fill:#025959"/><path d="M1777.79,105.23a19.67,19.67,0,0,1,1.14-7.14,39.72,39.72,0,0,1,2.88-6.18l.4-.72,1.35.6-.26.78a36.71,36.71,0,0,0-1.6,6.22,15.85,15.85,0,0,0,.14,6l.46,2-4.43.52Z" style="fill:#025959"/><path d="M1771.86,104.75a16.06,16.06,0,0,0,.14-6,36.71,36.71,0,0,0-1.6-6.22l-.26-.78,1.35-.6.4.72a39.72,39.72,0,0,1,2.88,6.18,19.45,19.45,0,0,1,1.13,7.14l-.07,2-4.43-.52Z" style="fill:#025959"/><path d="M112.76,108.1a50.39,50.39,0,0,1-1.69-9.9,59.58,59.58,0,0,1,.17-9.83A112.51,112.51,0,0,1,115,69.73l.43-1.57,3,.62-.22,1.62A106.67,106.67,0,0,0,117,88.56a46.69,46.69,0,0,0,3.53,16.9l1.61,3.76L113.84,112Z" style="fill:#025959"/><path d="M115.58,108.79a39.09,39.09,0,0,1,2.27-14.28,79.69,79.69,0,0,1,5.77-12.38l.8-1.43,2.7,1.19-.51,1.56a74.82,74.82,0,0,0-3.22,12.45,32,32,0,0,0,.3,11.93l.91,4-8.86,1Z" style="fill:#025959"/><path d="M103.7,107.83A32,32,0,0,0,104,95.9a74.82,74.82,0,0,0-3.22-12.45l-.52-1.56L103,80.7l.8,1.43a79.69,79.69,0,0,1,5.77,12.38,38.87,38.87,0,0,1,2.26,14.28l-.15,4.08-8.86-1Z" style="fill:#025959"/><path d="M789.68,70.79a52.78,52.78,0,0,1-1.74-10.22,60.17,60.17,0,0,1,.18-10.15A114.24,114.24,0,0,1,792,31.18l.44-1.63,3.09.64-.23,1.67A110.64,110.64,0,0,0,794,50.62a48.3,48.3,0,0,0,3.64,17.44l1.66,3.88-8.51,2.91Z" style="fill:#025959"/><path d="M792.6,71.5a40.28,40.28,0,0,1,2.34-14.74,81.72,81.72,0,0,1,6-12.78l.82-1.48,2.8,1.24-.54,1.6a76.93,76.93,0,0,0-3.32,12.85A33,33,0,0,0,801,70.51l.94,4.13-9.15,1.08Z" style="fill:#025959"/><path d="M780.33,70.51a33,33,0,0,0,.31-12.32,77.91,77.91,0,0,0-3.32-12.85l-.54-1.6,2.8-1.24L780.4,44a81.72,81.72,0,0,1,6,12.78A40.5,40.5,0,0,1,788.7,71.5l-.17,4.22-9.14-1.08Z" style="fill:#025959"/><path d="M1254.15,62.78a53.54,53.54,0,0,1-1.77-10.38,62.1,62.1,0,0,1,.18-10.31,117.82,117.82,0,0,1,3.94-19.54l.46-1.66,3.13.65-.23,1.7a112.06,112.06,0,0,0-1.31,19.05,49,49,0,0,0,3.7,17.73l1.69,3.94-8.65,3Z" style="fill:#025959"/><path d="M1257.12,63.51a40.92,40.92,0,0,1,2.38-15,82.45,82.45,0,0,1,6-13l.83-1.51,2.84,1.26-.54,1.63A78.45,78.45,0,0,0,1265.31,50a33.42,33.42,0,0,0,.31,12.52l1,4.19-9.3,1.1Z" style="fill:#025959"/><path d="M1244.65,62.51A33.42,33.42,0,0,0,1245,50a78.45,78.45,0,0,0-3.37-13.06l-.54-1.63,2.84-1.26.83,1.51a82.45,82.45,0,0,1,6,13,40.92,40.92,0,0,1,2.38,15L1253,67.8l-9.3-1.1Z" style="fill:#025959"/><path d="M722.39,162.53a49.74,49.74,0,0,1-1.64-9.63,57.41,57.41,0,0,1,.17-9.56,108.75,108.75,0,0,1,3.66-18.14l.42-1.53,2.9.6-.21,1.58a104,104,0,0,0-1.22,17.67A45.36,45.36,0,0,0,729.91,160l1.56,3.65-8,2.75Z" style="fill:#025959"/><path d="M725.14,163.2a38.13,38.13,0,0,1,2.21-13.89,76.71,76.71,0,0,1,5.62-12l.77-1.4,2.63,1.17-.5,1.51a72.69,72.69,0,0,0-3.13,12.11,30.89,30.89,0,0,0,.29,11.61l.89,3.9-8.62,1Z" style="fill:#025959"/><path d="M713.58,162.27a30.89,30.89,0,0,0,.29-11.61,72.69,72.69,0,0,0-3.13-12.11l-.5-1.51,2.63-1.17.77,1.4a76.71,76.71,0,0,1,5.62,12,38.13,38.13,0,0,1,2.21,13.89l-.16,4-8.62-1Z" style="fill:#025959"/><path d="M395.87,58.87A29.07,29.07,0,0,1,395,48.09a60.5,60.5,0,0,1,2-10.19l.24-.86,1.63.34-.12.88a58.8,58.8,0,0,0-.68,9.93,25.43,25.43,0,0,0,1.93,9.24l.88,2.06L396.47,61Z" style="fill:#025959"/><path d="M397.41,59.25a21.46,21.46,0,0,1,1.24-7.8,42,42,0,0,1,3.16-6.77l.43-.79,1.48.66-.28.85a41,41,0,0,0-1.76,6.8,17.61,17.61,0,0,0,.16,6.53l.5,2.19-4.84.57Z" style="fill:#025959"/><path d="M390.91,58.73a17.19,17.19,0,0,0,.16-6.53,41,41,0,0,0-1.75-6.8l-.29-.85,1.48-.66.44.79a42.82,42.82,0,0,1,3.15,6.77,21,21,0,0,1,1.24,7.8l-.08,2.24-4.85-.57Z" style="fill:#025959"/><path d="M529.67,149a30.59,30.59,0,0,1-.86-11.22A63.47,63.47,0,0,1,531,127.17l.24-.9,1.7.36-.13.92a62.41,62.41,0,0,0-.71,10.32,26.57,26.57,0,0,0,2,9.61l.91,2.14-4.67,1.59Z" style="fill:#025959"/><path d="M531.28,149.37a22.11,22.11,0,0,1,1.29-8.12,44.35,44.35,0,0,1,3.28-7l.45-.82,1.54.68-.3.89a43.25,43.25,0,0,0-1.82,7.07,18.16,18.16,0,0,0,.16,6.79l.53,2.27-5,.59Z" style="fill:#025959"/><path d="M524.52,148.83a18,18,0,0,0,.17-6.79,42.3,42.3,0,0,0-1.83-7.07l-.29-.89,1.54-.68.45.82a45.25,45.25,0,0,1,3.28,7,22.11,22.11,0,0,1,1.29,8.12l-.09,2.32-5-.59Z" style="fill:#025959"/><path d="M203.72,113.41a55,55,0,0,1-1.84-10.8,63.78,63.78,0,0,1,.18-10.72,122.83,122.83,0,0,1,4.1-20.33l.48-1.72,3.25.68-.24,1.77a116.89,116.89,0,0,0-1.36,19.81,50.83,50.83,0,0,0,3.85,18.43l1.75,4.1-9,3.07Z" style="fill:#025959"/><path d="M206.8,114.16a42.58,42.58,0,0,1,2.47-15.57,86.56,86.56,0,0,1,6.3-13.51l.86-1.56,3,1.31-.57,1.69a81.73,81.73,0,0,0-3.5,13.58,34.81,34.81,0,0,0,.32,13l1,4.36L207,118.62Z" style="fill:#025959"/><path d="M193.84,113.12a34.81,34.81,0,0,0,.32-13,81.78,81.78,0,0,0-3.51-13.58l-.56-1.69L193,83.52l.87,1.56a86.53,86.53,0,0,1,6.29,13.51,42.37,42.37,0,0,1,2.48,15.57l-.18,4.46-9.66-1.14Z" style="fill:#025959"/><path d="M252.88,57.84a50.42,50.42,0,0,1-1.66-9.77,58,58,0,0,1,.17-9.7A109.72,109.72,0,0,1,255.1,20l.42-1.55,3,.61-.22,1.6A105.9,105.9,0,0,0,257,38.56a46.15,46.15,0,0,0,3.48,16.68L262.09,59,254,61.73Z" style="fill:#025959"/><path d="M255.67,58.52a38.58,38.58,0,0,1,2.24-14.09,77.56,77.56,0,0,1,5.7-12.21l.78-1.42L267.06,32l-.51,1.53a73,73,0,0,0-3.17,12.28,31.38,31.38,0,0,0,.29,11.78l.9,4-8.74,1Z" style="fill:#025959"/><path d="M244,57.58a31.8,31.8,0,0,0,.29-11.78,75,75,0,0,0-3.17-12.28L240.55,32l2.68-1.19.78,1.42a76.64,76.64,0,0,1,5.69,12.21,38.37,38.37,0,0,1,2.24,14.09l-.15,4-8.75-1Z" style="fill:#025959"/><path d="M710.82,50.37A29.82,29.82,0,0,1,710,39.49a61.91,61.91,0,0,1,2.08-10.29l.24-.87,1.64.34-.12.9a59.81,59.81,0,0,0-.69,10,25.92,25.92,0,0,0,2,9.33L716,51l-4.54,1.56Z" style="fill:#025959"/><path d="M712.38,50.75a21.51,21.51,0,0,1,1.25-7.88A43.56,43.56,0,0,1,716.82,36l.43-.79,1.5.66-.29.86a41.83,41.83,0,0,0-1.77,6.87,17.52,17.52,0,0,0,.16,6.59l.51,2.2-4.89.58Z" style="fill:#025959"/><path d="M705.82,50.23a17.52,17.52,0,0,0,.16-6.59,40.85,40.85,0,0,0-1.77-6.87l-.29-.86,1.5-.66.44.79A44.45,44.45,0,0,1,709,42.87a21.51,21.51,0,0,1,1.25,7.88L710.21,53l-4.89-.58Z" style="fill:#025959"/><path d="M898.87,166.26a28.52,28.52,0,0,1-.81-10.52,59.93,59.93,0,0,1,2-9.94l.23-.84,1.59.33-.11.87a56.84,56.84,0,0,0-.67,9.68,24.84,24.84,0,0,0,1.88,9l.86,2-4.39,1.5Z" style="fill:#025959"/><path d="M900.37,166.63a21,21,0,0,1,1.21-7.62,42.86,42.86,0,0,1,3.08-6.6l.42-.76,1.45.64-.28.83a39,39,0,0,0-1.71,6.63,17,17,0,0,0,.15,6.37l.49,2.13-4.72.56Z" style="fill:#025959"/><path d="M894,166.12a17,17,0,0,0,.15-6.37,39,39,0,0,0-1.71-6.63l-.28-.83,1.45-.64.42.76a42.86,42.86,0,0,1,3.08,6.6,21,21,0,0,1,1.21,7.62l-.09,2.18-4.72-.56Z" style="fill:#025959"/><path d="M1873,63.81a47.85,47.85,0,0,1-1.36-17.63A99.4,99.4,0,0,1,1875,29.53l.39-1.41,2.67.55-.2,1.45a96.18,96.18,0,0,0-1.12,16.23,41.62,41.62,0,0,0,3.16,15.1l1.43,3.36L1874,67.32Z" style="fill:#025959"/><path d="M1875.49,64.42a34.87,34.87,0,0,1,2-12.76,70.43,70.43,0,0,1,5.16-11.06l.7-1.28,2.43,1.07-.47,1.39a67.65,67.65,0,0,0-2.87,11.12,28.64,28.64,0,0,0,.26,10.67l.82,3.57-7.92.94Z" style="fill:#025959"/><path d="M1864.87,63.57a28.43,28.43,0,0,0,.27-10.67,67.65,67.65,0,0,0-2.87-11.12l-.47-1.39,2.42-1.07.71,1.28a70.43,70.43,0,0,1,5.16,11.06,34.66,34.66,0,0,1,2,12.76l-.14,3.66-7.91-.94Z" style="fill:#025959"/><path d="M1048.1,54.18a30.25,30.25,0,0,1-.85-11.12,63.41,63.41,0,0,1,2.12-10.5l.24-.89,1.68.35-.12.92a60.2,60.2,0,0,0-.7,10.23,26.28,26.28,0,0,0,2,9.52l.91,2.12-4.64,1.59Z" style="fill:#025959"/><path d="M1049.7,54.57a22,22,0,0,1,1.27-8,44.94,44.94,0,0,1,3.26-7l.44-.81,1.53.68-.29.87a41.43,41.43,0,0,0-1.81,7,17.79,17.79,0,0,0,.16,6.72l.52,2.25-5,.59Z" style="fill:#025959"/><path d="M1043,54a18,18,0,0,0,.17-6.72,42.4,42.4,0,0,0-1.81-7l-.3-.87,1.53-.68.45.81a44.91,44.91,0,0,1,3.25,7,22.19,22.19,0,0,1,1.28,8l-.09,2.3-5-.59Z" style="fill:#025959"/><path d="M1416.37,67.92a53.41,53.41,0,0,1-1.77-10.43,61.51,61.51,0,0,1,.18-10.35,116.75,116.75,0,0,1,4-19.62l.46-1.66,3.14.65-.23,1.71a111.85,111.85,0,0,0-1.31,19.12,49.14,49.14,0,0,0,3.71,17.8l1.7,4-8.68,3Z" style="fill:#025959"/><path d="M1419.35,68.64a41,41,0,0,1,2.39-15,84.1,84.1,0,0,1,6.07-13l.84-1.51,2.85,1.27L1431,42a78.83,78.83,0,0,0-3.39,13.11,33.68,33.68,0,0,0,.31,12.57l1,4.21-9.33,1.1Z" style="fill:#025959"/><path d="M1406.84,67.64a33.9,33.9,0,0,0,.31-12.57A78.83,78.83,0,0,0,1403.76,42l-.54-1.63,2.85-1.27.83,1.51a83.22,83.22,0,0,1,6.08,13,41,41,0,0,1,2.39,15L1415.2,73l-9.33-1.1Z" style="fill:#025959"/><path d="M1151.16,164a30.64,30.64,0,0,1-.87-11.35,63.49,63.49,0,0,1,2.16-10.71l.25-.91,1.72.36-.13.93a60.71,60.71,0,0,0-.72,10.44,26.88,26.88,0,0,0,2,9.72l.92,2.17-4.73,1.62Z" style="fill:#025959"/><path d="M1152.79,164.37a22.14,22.14,0,0,1,1.3-8.21,44.2,44.2,0,0,1,3.32-7.12l.45-.83,1.56.69-.3.9a43,43,0,0,0-1.84,7.15,18.37,18.37,0,0,0,.17,6.87l.52,2.3-5.09.6Z" style="fill:#025959"/><path d="M1146,163.82a18.37,18.37,0,0,0,.17-6.87,42.05,42.05,0,0,0-1.85-7.15l-.3-.9,1.56-.69.46.83a46,46,0,0,1,3.32,7.12,22.56,22.56,0,0,1,1.3,8.21l-.09,2.35-5.1-.6Z" style="fill:#025959"/><path d="M1710.32,164.8a44,44,0,0,1-1.25-16.25,91.61,91.61,0,0,1,3.09-15.34l.36-1.3,2.46.51-.19,1.33a88.41,88.41,0,0,0-1,15,38.16,38.16,0,0,0,2.9,13.91l1.33,3.1-6.78,2.32Z" style="fill:#025959"/><path d="M1712.64,165.37a32.29,32.29,0,0,1,1.87-11.76,65.12,65.12,0,0,1,4.75-10.19l.66-1.18,2.23,1-.43,1.28a62.12,62.12,0,0,0-2.65,10.25,26.28,26.28,0,0,0,.25,9.83l.75,3.29-7.3.86Z" style="fill:#025959"/><path d="M1702.86,164.58a26.5,26.5,0,0,0,.24-9.83,61.14,61.14,0,0,0-2.65-10.25l-.42-1.28,2.23-1,.65,1.18a65.12,65.12,0,0,1,4.75,10.19,32.08,32.08,0,0,1,1.87,11.76l-.13,3.36-7.3-.86Z" style="fill:#025959"/><path d="M1107.43,103.55a43.93,43.93,0,0,1-1.24-16.15,90.63,90.63,0,0,1,3.08-15.24l.35-1.29,2.44.5-.18,1.33a87.18,87.18,0,0,0-1,14.86,38.19,38.19,0,0,0,2.89,13.83l1.31,3.07-6.73,2.31Z" style="fill:#025959"/><path d="M1109.74,104.11a32.1,32.1,0,0,1,1.86-11.68,64.77,64.77,0,0,1,4.72-10.13l.65-1.17,2.22,1-.43,1.27a62.26,62.26,0,0,0-2.63,10.18,26.18,26.18,0,0,0,.24,9.77l.75,3.27-7.25.86Z" style="fill:#025959"/><path d="M1100,103.33a26.18,26.18,0,0,0,.24-9.77,60.3,60.3,0,0,0-2.63-10.18l-.42-1.27,2.22-1,.64,1.17a64.8,64.8,0,0,1,4.73,10.13,31.88,31.88,0,0,1,1.85,11.68l-.13,3.35-7.25-.86Z" style="fill:#025959"/><path d="M872.56,42.81a34.65,34.65,0,0,1-1-12.73,71.81,71.81,0,0,1,2.43-12l.28-1,1.92.4-.14,1.05a68.61,68.61,0,0,0-.8,11.72,30.08,30.08,0,0,0,2.27,10.91l1,2.43-5.31,1.81Z" style="fill:#025959"/><path d="M874.39,43.26A25,25,0,0,1,875.85,34a51.25,51.25,0,0,1,3.72-8l.51-.92,1.75.77-.33,1a48.69,48.69,0,0,0-2.08,8,20.67,20.67,0,0,0,.19,7.7l.6,2.58-5.72.68Z" style="fill:#025959"/><path d="M866.72,42.64a20.67,20.67,0,0,0,.19-7.7,48.69,48.69,0,0,0-2.08-8l-.33-1,1.75-.77.51.92a51.25,51.25,0,0,1,3.72,8A25.2,25.2,0,0,1,872,43.26l-.11,2.64-5.72-.68Z" style="fill:#025959"/><path d="M1057.4,161.42a44.2,44.2,0,0,1-1.25-16.28,91.88,91.88,0,0,1,3.1-15.38l.36-1.31,2.46.52-.18,1.33a88.83,88.83,0,0,0-1,15,38.53,38.53,0,0,0,2.91,13.94l1.33,3.11-6.79,2.32Z" style="fill:#025959"/><path d="M1059.73,162a32.22,32.22,0,0,1,1.88-11.78,64.59,64.59,0,0,1,4.76-10.22l.65-1.19,2.24,1-.43,1.29a62.08,62.08,0,0,0-2.65,10.27,26.4,26.4,0,0,0,.24,9.85l.76,3.3-7.32.87Z" style="fill:#025959"/><path d="M1049.92,161.2a26.4,26.4,0,0,0,.25-9.85,61.15,61.15,0,0,0-2.66-10.27l-.42-1.29,2.23-1L1050,140a65.49,65.49,0,0,1,4.76,10.22,32,32,0,0,1,1.87,11.78l-.13,3.38-7.31-.87Z" style="fill:#025959"/><path d="M447.37,160.57a56,56,0,0,1-1.85-10.84,65.21,65.21,0,0,1,.19-10.75,121.32,121.32,0,0,1,4.11-20.39l.48-1.73,3.26.68-.24,1.77A116.74,116.74,0,0,0,452,139.19a50.7,50.7,0,0,0,3.86,18.49l1.76,4.12-9,3.08Z" style="fill:#025959"/><path d="M450.46,161.32a42.61,42.61,0,0,1,2.48-15.62,87.08,87.08,0,0,1,6.32-13.55l.87-1.57,3,1.31-.57,1.71A82,82,0,0,0,459,147.22a34.81,34.81,0,0,0,.32,13.06l1,4.37-9.7,1.15Z" style="fill:#025959"/><path d="M437.46,160.28a35,35,0,0,0,.32-13.06,81,81,0,0,0-3.52-13.62l-.57-1.71,3-1.31.87,1.57a86.13,86.13,0,0,1,6.31,13.55,42.61,42.61,0,0,1,2.48,15.62l-.17,4.48-9.7-1.15Z" style="fill:#025959"/><path d="M1335.28,64.61a50,50,0,0,1-1.41-18.42,103.25,103.25,0,0,1,3.51-17.41l.4-1.47,2.79.58-.21,1.51a99.79,99.79,0,0,0-1.16,17,43.44,43.44,0,0,0,3.29,15.77l1.5,3.52-7.68,2.63Z" style="fill:#025959"/><path d="M1337.92,65.25A36.42,36.42,0,0,1,1340,51.92a74.14,74.14,0,0,1,5.39-11.56l.74-1.34,2.53,1.12-.49,1.45a70.83,70.83,0,0,0-3,11.63,29.87,29.87,0,0,0,.28,11.14l.85,3.74-8.27,1Z" style="fill:#025959"/><path d="M1326.82,64.36a29.87,29.87,0,0,0,.28-11.14,69.84,69.84,0,0,0-3-11.63l-.49-1.45,2.53-1.12.74,1.34a74.14,74.14,0,0,1,5.39,11.56,36.42,36.42,0,0,1,2.12,13.33l-.15,3.82-8.27-1Z" style="fill:#025959"/><path d="M287.8,153.3a44.52,44.52,0,0,1-1.26-16.38,93.08,93.08,0,0,1,3.12-15.48l.36-1.31,2.48.51-.18,1.35a88.82,88.82,0,0,0-1,15.08,38.83,38.83,0,0,0,2.93,14l1.34,3.13-6.84,2.33Z" style="fill:#025959"/><path d="M290.15,153.88A32.41,32.41,0,0,1,292,142a66.81,66.81,0,0,1,4.79-10.29l.66-1.19,2.25,1-.43,1.29a62.2,62.2,0,0,0-2.67,10.34,26.51,26.51,0,0,0,.25,9.91l.76,3.32-7.36.87Z" style="fill:#025959"/><path d="M280.27,153.08a26.3,26.3,0,0,0,.25-9.91,62.2,62.2,0,0,0-2.67-10.34l-.43-1.29,2.25-1,.66,1.19A65.89,65.89,0,0,1,285.12,142,32.41,32.41,0,0,1,287,153.88l-.13,3.39-7.36-.87Z" style="fill:#025959"/><path d="M808,152.36a31.3,31.3,0,0,1-.88-11.43,64.54,64.54,0,0,1,2.18-10.78l.25-.92,1.73.36-.13.94a62.59,62.59,0,0,0-.72,10.52,27,27,0,0,0,2,9.78l.93,2.18-4.76,1.63Z" style="fill:#025959"/><path d="M809.65,152.76a22.68,22.68,0,0,1,1.31-8.27,46.12,46.12,0,0,1,3.34-7.17l.46-.83,1.57.7-.3.9a43.85,43.85,0,0,0-1.86,7.2,18.57,18.57,0,0,0,.17,6.91l.53,2.32-5.13.6Z" style="fill:#025959"/><path d="M802.77,152.2a18.57,18.57,0,0,0,.17-6.91,43.85,43.85,0,0,0-1.86-7.2l-.3-.9,1.57-.7.46.83a46.12,46.12,0,0,1,3.34,7.17,22.68,22.68,0,0,1,1.31,8.27l-.09,2.36-5.13-.6Z" style="fill:#025959"/><path d="M43.73,154.2a27.06,27.06,0,0,1-.77-9.93,56.59,56.59,0,0,1,1.9-9.39l.22-.79,1.5.31-.11.82a53.57,53.57,0,0,0-.63,9.14,23.4,23.4,0,0,0,1.78,8.51l.81,1.9-4.15,1.41Z" style="fill:#025959"/><path d="M45.15,154.55a19.94,19.94,0,0,1,1.14-7.19,40,40,0,0,1,2.91-6.23l.4-.73L51,141l-.26.78a37.33,37.33,0,0,0-1.62,6.27,16.12,16.12,0,0,0,.15,6l.46,2-4.46.53Z" style="fill:#025959"/><path d="M39.17,154.07a16.33,16.33,0,0,0,.15-6,38.32,38.32,0,0,0-1.62-6.27l-.26-.78,1.36-.61.4.73a40,40,0,0,1,2.91,6.23,19.94,19.94,0,0,1,1.14,7.19l-.08,2.06-4.46-.53Z" style="fill:#025959"/><path d="M1791.06,44.56a35.42,35.42,0,0,1-1-13,73.15,73.15,0,0,1,2.49-12.31l.28-1,2,.41-.14,1.07a70.9,70.9,0,0,0-.83,12,31,31,0,0,0,2.33,11.16l1.07,2.48-5.44,1.86Z" style="fill:#025959"/><path d="M1792.92,45a25.85,25.85,0,0,1,1.5-9.43,52.34,52.34,0,0,1,3.81-8.18l.52-.95,1.79.8-.34,1a49.47,49.47,0,0,0-2.12,8.22,21.26,21.26,0,0,0,.19,7.89l.61,2.64-5.85.69Z" style="fill:#025959"/><path d="M1785.07,44.39a21,21,0,0,0,.2-7.89,50.47,50.47,0,0,0-2.12-8.22l-.35-1,1.79-.8.53.95a53.27,53.27,0,0,1,3.81,8.18,25.64,25.64,0,0,1,1.49,9.43l-.1,2.7-5.85-.69Z" style="fill:#025959"/><path d="M85.05,41.35A38.64,38.64,0,0,1,84,27.17a80.4,80.4,0,0,1,2.7-13.39L87,12.65l2.15.44L89,14.26a78.12,78.12,0,0,0-.9,13.05A33.47,33.47,0,0,0,90.6,39.45l1.15,2.7-5.91,2Z" style="fill:#025959"/><path d="M87.08,41.84a28,28,0,0,1,1.63-10.26,57,57,0,0,1,4.15-8.89l.57-1,1.95.86L95,23.64a54,54,0,0,0-2.31,8.94,23,23,0,0,0,.21,8.58L93.56,44l-6.36.75Z" style="fill:#025959"/><path d="M78.54,41.16a22.82,22.82,0,0,0,.21-8.58,53,53,0,0,0-2.31-8.94l-.37-1.12,2-.86.57,1a57.89,57.89,0,0,1,4.15,8.89,28.18,28.18,0,0,1,1.63,10.26l-.12,2.94L77.88,44Z" style="fill:#025959"/><path d="M1245.7,157.15a31.52,31.52,0,0,1-.89-11.59,65.56,65.56,0,0,1,2.21-10.95l.25-.92,1.76.36-.13.95a62.46,62.46,0,0,0-.74,10.67,27.62,27.62,0,0,0,2.08,9.93l.94,2.21-4.83,1.65Z" style="fill:#025959"/><path d="M1247.36,157.55a23.06,23.06,0,0,1,1.33-8.38,46.55,46.55,0,0,1,3.39-7.27l.47-.85,1.59.71-.3.91A43.23,43.23,0,0,0,1252,150a18.69,18.69,0,0,0,.17,7l.54,2.35-5.2.62Z" style="fill:#025959"/><path d="M1240.38,157a18.89,18.89,0,0,0,.18-7,44.2,44.2,0,0,0-1.89-7.31l-.31-.91,1.59-.71.47.85a45.66,45.66,0,0,1,3.39,7.27,22.85,22.85,0,0,1,1.33,8.38l-.09,2.41-5.21-.62Z" style="fill:#025959"/><path d="M611.66,165.22A51.33,51.33,0,0,1,610,155.14a59.59,59.59,0,0,1,.17-10,112.44,112.44,0,0,1,3.83-19l.44-1.6,3,.63-.23,1.65a108.49,108.49,0,0,0-1.27,18.49,47.45,47.45,0,0,0,3.59,17.2l1.64,3.83-8.39,2.87Z" style="fill:#025959"/><path d="M614.54,165.92a39.81,39.81,0,0,1,2.31-14.53,80.85,80.85,0,0,1,5.87-12.61l.81-1.46,2.76,1.22-.53,1.59a75.23,75.23,0,0,0-3.27,12.67,32.51,32.51,0,0,0,.3,12.15l.93,4.07-9,1.07Z" style="fill:#025959"/><path d="M602.44,165a32.3,32.3,0,0,0,.3-12.15,75.23,75.23,0,0,0-3.27-12.67l-.53-1.59,2.76-1.22.81,1.46a80.85,80.85,0,0,1,5.87,12.61,39.6,39.6,0,0,1,2.31,14.53l-.16,4.17-9-1.07Z" style="fill:#025959"/><path d="M979.72,154.09a53.33,53.33,0,0,1-1.79-10.48,62.09,62.09,0,0,1,.18-10.4,117.87,117.87,0,0,1,4-19.73l.46-1.67,3.16.66-.24,1.71a113.15,113.15,0,0,0-1.32,19.23,49.17,49.17,0,0,0,3.74,17.88l1.7,4-8.73,3Z" style="fill:#025959"/><path d="M982.71,154.82a41,41,0,0,1,2.4-15.12,84,84,0,0,1,6.1-13.1l.84-1.52,2.87,1.27-.55,1.65a79.52,79.52,0,0,0-3.4,13.17,33.78,33.78,0,0,0,.31,12.63l1,4.24-9.38,1.1Z" style="fill:#025959"/><path d="M970.13,153.8a33.78,33.78,0,0,0,.31-12.63A79.52,79.52,0,0,0,967,128l-.55-1.65,2.87-1.27.84,1.52a84,84,0,0,1,6.11,13.1,41.43,41.43,0,0,1,2.4,15.12l-.17,4.32-9.38-1.1Z" style="fill:#025959"/><path d="M590.79,154.21a23.38,23.38,0,0,0,1.77-8.46,53.1,53.1,0,0,0-.63-9.1l-.11-.81,1.5-.31.21.79a55.88,55.88,0,0,1,1.89,9.33,27,27,0,0,1-.76,9.88l-.55,2L590,156.1Z" style="fill:#025959"/><path d="M600,155.88a19.72,19.72,0,0,1,1.14-7.15,39.07,39.07,0,0,1,2.89-6.2l.4-.72,1.35.6-.26.78a38.09,38.09,0,0,0-1.61,6.23,16.16,16.16,0,0,0,.15,6l.46,2-4.44.53Z" style="fill:#025959"/><path d="M74.51,155.31a32.89,32.89,0,0,0,2.49-12,74.79,74.79,0,0,0-.88-12.85L76,129.35l2.12-.44.3,1.12A79,79,0,0,1,81,143.22a37.9,37.9,0,0,1-1.07,14L79.19,160l-5.82-2Z" style="fill:#025959"/><path d="M87.56,157.66a27.56,27.56,0,0,1,1.61-10.1,56.61,56.61,0,0,1,4.08-8.76l.56-1,1.92.85-.37,1.1a52.27,52.27,0,0,0-2.27,8.8,22.54,22.54,0,0,0,.2,8.45l.65,2.83-6.27.74Z" style="fill:#025959"/><path d="M1420,72.48a49.32,49.32,0,0,0,3.73-17.87,113.83,113.83,0,0,0-1.32-19.2l-.24-1.72,3.16-.65.46,1.66a117.83,117.83,0,0,1,4,19.71A62,62,0,0,1,1430,64.8a53.08,53.08,0,0,1-1.78,10.47L1427,79.43l-8.71-3Z" style="fill:#025959"/><path d="M1439.52,76a41.33,41.33,0,0,1,2.4-15.1,83.42,83.42,0,0,1,6.1-13.09l.84-1.51,2.87,1.26-.55,1.65a78.44,78.44,0,0,0-3.4,13.16,33.68,33.68,0,0,0,.31,12.61l1,4.23-9.37,1.11Z" style="fill:#025959"/><path d="M499,51.84a26.82,26.82,0,0,0,2-9.7,62.54,62.54,0,0,0-.72-10.42l-.13-.93,1.72-.35.24.9A63.46,63.46,0,0,1,504.29,42a30.69,30.69,0,0,1-.87,11.32l-.63,2.26L498.07,54Z" style="fill:#025959"/><path d="M509.58,53.75a22.24,22.24,0,0,1,1.3-8.19,45.34,45.34,0,0,1,3.31-7.11l.45-.82,1.56.69-.3.89a43.11,43.11,0,0,0-1.84,7.14,18.26,18.26,0,0,0,.17,6.85l.52,2.29-5.08.6Z" style="fill:#025959"/><path d="M1556.64,44a25.73,25.73,0,0,0,1.92-9.21,58.45,58.45,0,0,0-.68-9.9l-.12-.88,1.62-.34.24.86a61.36,61.36,0,0,1,2.05,10.16,29.33,29.33,0,0,1-.83,10.75l-.6,2.14L1555.76,46Z" style="fill:#025959"/><path d="M1566.69,45.78a21.18,21.18,0,0,1,1.24-7.78,42.39,42.39,0,0,1,3.14-6.74l.43-.78,1.48.65-.28.85a40.55,40.55,0,0,0-1.76,6.78,17.45,17.45,0,0,0,.16,6.5l.5,2.18-4.82.57Z" style="fill:#025959"/><path d="M1317.64,138.93a28.8,28.8,0,0,0,2.18-10.43,65.75,65.75,0,0,0-.77-11.22l-.14-1,1.85-.39.27,1a68.61,68.61,0,0,1,2.32,11.51,33.19,33.19,0,0,1-.94,12.18l-.68,2.43-5.08-1.73Z" style="fill:#025959"/><path d="M1329,141a24.12,24.12,0,0,1,1.4-8.82,49.57,49.57,0,0,1,3.56-7.65l.49-.88,1.68.74-.32,1a45.59,45.59,0,0,0-2,7.69,19.76,19.76,0,0,0,.18,7.37l.57,2.47-5.47.64Z" style="fill:#025959"/><path d="M409.58,136a30.91,30.91,0,0,0,2.35-11.23,71.79,71.79,0,0,0-.83-12.07l-.15-1.07,2-.41.28,1a73.89,73.89,0,0,1,2.5,12.39,35.65,35.65,0,0,1-1,13.11l-.73,2.61-5.47-1.87Z" style="fill:#025959"/><path d="M421.84,138.19a26,26,0,0,1,1.51-9.48,53,53,0,0,1,3.83-8.23l.53-1,1.8.79-.34,1a49.85,49.85,0,0,0-2.14,8.27,21.26,21.26,0,0,0,.2,7.93l.61,2.66-5.89.69Z" style="fill:#025959"/><path d="M1256.22,48.26a24.66,24.66,0,0,0,1.86-8.94,57,57,0,0,0-.65-9.6l-.12-.85,1.58-.33.22.83a57.88,57.88,0,0,1,2,9.85,28.45,28.45,0,0,1-.8,10.43l-.58,2.08-4.35-1.48Z" style="fill:#025959"/><path d="M1266,50a20.77,20.77,0,0,1,1.2-7.55,42.58,42.58,0,0,1,3-6.54l.42-.76,1.43.63-.27.82a40.6,40.6,0,0,0-1.7,6.58,16.86,16.86,0,0,0,.16,6.31l.48,2.12-4.68.55Z" style="fill:#025959"/><path d="M1860.17,136a24.53,24.53,0,0,0,1.85-8.87,56,56,0,0,0-.65-9.52l-.12-.85,1.57-.33.22.83a58.92,58.92,0,0,1,2,9.77,28.25,28.25,0,0,1-.8,10.35l-.58,2.07-4.31-1.48Z" style="fill:#025959"/><path d="M1869.85,137.76a20.44,20.44,0,0,1,1.19-7.49,41.14,41.14,0,0,1,3-6.5l.41-.75,1.42.63-.27.81A39.69,39.69,0,0,0,1874,131a16.6,16.6,0,0,0,.15,6.26l.48,2.1-4.65.55Z" style="fill:#025959"/><path d="M777.23,58.48a43.65,43.65,0,0,0,3.29-15.78,100.59,100.59,0,0,0-1.16-17l-.21-1.52,2.78-.57.41,1.47a104.22,104.22,0,0,1,3.51,17.39,50.17,50.17,0,0,1-1.42,18.42l-1,3.68L775.72,62Z" style="fill:#025959"/><path d="M794.45,61.59a36.42,36.42,0,0,1,2.12-13.33A73.2,73.2,0,0,1,802,36.7l.74-1.34,2.53,1.12-.48,1.45a70,70,0,0,0-3,11.62A29.93,29.93,0,0,0,802,60.7l.86,3.73-8.27,1Z" style="fill:#025959"/><path d="M145.16,60.26A23,23,0,0,0,146.89,52a52.68,52.68,0,0,0-.61-8.89l-.11-.79,1.46-.3.21.77a54.45,54.45,0,0,1,1.84,9.11,26.4,26.4,0,0,1-.74,9.65l-.54,1.93-4-1.38Z" style="fill:#025959"/><path d="M154.18,61.89a19.22,19.22,0,0,1,1.11-7,40,40,0,0,1,2.82-6.06l.39-.7,1.33.59-.26.76A37.27,37.27,0,0,0,158,55.58a15.63,15.63,0,0,0,.15,5.84l.44,2-4.33.51Z" style="fill:#025959"/><path d="M1114.12,69.05a46.63,46.63,0,0,0,3.52-16.89A106.65,106.65,0,0,0,1116.4,34l-.23-1.62,3-.62.43,1.58A111.38,111.38,0,0,1,1123.35,52a59.48,59.48,0,0,1,.17,9.82,50.14,50.14,0,0,1-1.69,9.9l-1.08,3.94-8.24-2.82Z" style="fill:#025959"/><path d="M1132.56,72.38a38.86,38.86,0,0,1,2.27-14.27,79.66,79.66,0,0,1,5.76-12.38l.8-1.43,2.71,1.2-.52,1.55a74.82,74.82,0,0,0-3.22,12.45,31.91,31.91,0,0,0,.3,11.92l.92,4-8.86,1Z" style="fill:#025959"/><path d="M1767.44,87.06a52.87,52.87,0,0,0,4-19.14A121,121,0,0,0,1770,47.34l-.25-1.83,3.38-.7.49,1.78a125.9,125.9,0,0,1,4.26,21.11,66.65,66.65,0,0,1,.2,11.14,58.29,58.29,0,0,1-1.91,11.21L1775,94.52l-9.33-3.2Z" style="fill:#025959"/><path d="M1788.34,90.83a44.08,44.08,0,0,1,2.57-16.17,89.62,89.62,0,0,1,6.54-14l.9-1.62,3.07,1.36-.59,1.76a83.84,83.84,0,0,0-3.64,14.1,36.19,36.19,0,0,0,.33,13.52l1,4.53-10,1.19Z" style="fill:#025959"/><path d="M992.87,97.58a49.57,49.57,0,0,0,3.76-18,113.54,113.54,0,0,0-1.33-19.35l-.23-1.73,3.18-.66.46,1.68a118.21,118.21,0,0,1,4,19.86,62.92,62.92,0,0,1,.19,10.47,54.67,54.67,0,0,1-1.8,10.55l-1.16,4.19-8.78-3Z" style="fill:#025959"/><path d="M1012.53,101.13A41.5,41.5,0,0,1,1015,85.92a83.81,83.81,0,0,1,6.15-13.19l.84-1.53,2.89,1.28-.55,1.65a80,80,0,0,0-3.43,13.27,34,34,0,0,0,.32,12.71l1,4.26-9.44,1.12Z" style="fill:#025959"/><path d="M305.9,54.05a22.54,22.54,0,0,0,1.69-8.14,50.92,50.92,0,0,0-.6-8.74l-.1-.78,1.43-.3.21.76a52.79,52.79,0,0,1,1.81,9,25.81,25.81,0,0,1-.73,9.5l-.53,1.89-4-1.35Z" style="fill:#025959"/><path d="M314.78,55.65a18.42,18.42,0,0,1,1.09-6.87,37.79,37.79,0,0,1,2.77-6l.39-.69,1.3.58-.25.74a36.19,36.19,0,0,0-1.55,6,15.36,15.36,0,0,0,.15,5.75l.44,1.92-4.27.51Z" style="fill:#025959"/><path d="M29.8,66.8A29.84,29.84,0,0,0,32.05,56a68.2,68.2,0,0,0-.8-11.59l-.14-1L33,43l.28,1a70.35,70.35,0,0,1,2.4,11.89,34.34,34.34,0,0,1-1,12.59L34,71l-5.25-1.8Z" style="fill:#025959"/><path d="M41.57,68.92A24.85,24.85,0,0,1,43,59.81a50.11,50.11,0,0,1,3.68-7.9l.51-.91,1.73.76-.33,1a48,48,0,0,0-2.06,8,20.61,20.61,0,0,0,.19,7.61l.59,2.56-5.66.66Z" style="fill:#025959"/><path d="M1150.82,155.68a35.62,35.62,0,0,0,2.7-12.9,82.67,82.67,0,0,0-1-13.87l-.18-1.24,2.29-.47.33,1.2a86,86,0,0,1,2.87,14.23,41.09,41.09,0,0,1-1.16,15.07l-.84,3-6.29-2.15Z" style="fill:#025959"/><path d="M1164.91,158.22a30.11,30.11,0,0,1,1.73-10.9,61,61,0,0,1,4.41-9.45l.61-1.1,2.07.92-.4,1.18a56.9,56.9,0,0,0-2.46,9.51,24.57,24.57,0,0,0,.23,9.11l.7,3.06-6.77.8Z" style="fill:#025959"/><path d="M1621.88,120.44a55,55,0,0,0,4.15-19.85,125.82,125.82,0,0,0-1.47-21.35l-.26-1.9,3.51-.73.5,1.85a129.91,129.91,0,0,1,4.42,21.9,68.34,68.34,0,0,1,.2,11.55,59.57,59.57,0,0,1-2,11.63l-1.28,4.63-9.68-3.31Z" style="fill:#025959"/><path d="M1643.56,124.35a43.59,43.59,0,0,1,.56-8.64,50.21,50.21,0,0,1,2.1-8.13A93.16,93.16,0,0,1,1653,93l.94-1.68,3.18,1.4-.61,1.83a87.52,87.52,0,0,0-3.78,14.63,37.59,37.59,0,0,0,.35,14l1.08,4.7-10.43,1.23Z" style="fill:#025959"/><path d="M890,105.64a44,44,0,0,0,3.33-16,100.89,100.89,0,0,0-1.18-17.15L891.92,71l2.82-.58.41,1.49a105.52,105.52,0,0,1,3.55,17.6,55.16,55.16,0,0,1,.16,9.28,47.62,47.62,0,0,1-1.59,9.35l-1,3.73-7.78-2.67Z" style="fill:#025959"/><path d="M907.4,108.79a36.84,36.84,0,0,1,2.15-13.49A73.57,73.57,0,0,1,915,83.61l.75-1.36,2.55,1.14-.49,1.46a71.39,71.39,0,0,0-3,11.76,30.15,30.15,0,0,0,.28,11.27l.86,3.78-8.37,1Z" style="fill:#025959"/><path d="M655.92,77.62A34.59,34.59,0,0,0,658.55,65a79.77,79.77,0,0,0-.93-13.53l-.16-1.21,2.22-.46L660,51a82.83,82.83,0,0,1,2.8,13.88,39.75,39.75,0,0,1-1.13,14.7l-.81,2.93-6.13-2.1Z" style="fill:#025959"/><path d="M669.67,80.1a28.91,28.91,0,0,1,1.69-10.64,57.62,57.62,0,0,1,4.3-9.22l.59-1.07,2,.9-.38,1.15a56.36,56.36,0,0,0-2.4,9.28,24,24,0,0,0,.22,8.89l.69,3-6.61.78Z" style="fill:#025959"/><path d="M226.8,151.77a49.85,49.85,0,0,0,3.78-18.09,114.83,114.83,0,0,0-1.34-19.46l-.23-1.73,3.19-.67.47,1.69a119.6,119.6,0,0,1,4,20,63.64,63.64,0,0,1,.19,10.53,54.3,54.3,0,0,1-1.81,10.6l-1.16,4.22-8.83-3Z" style="fill:#025959"/><path d="M246.56,155.34A41.9,41.9,0,0,1,249,140.05a84.27,84.27,0,0,1,6.18-13.26l.85-1.54,2.9,1.29-.55,1.66a79.78,79.78,0,0,0-3.45,13.33,34.36,34.36,0,0,0,.32,12.78l1,4.29-9.49,1.12Z" style="fill:#025959"/><path d="M785.1,161.87a43.25,43.25,0,0,0,3.27-15.69,100.63,100.63,0,0,0-1.15-16.86l-.21-1.5,2.77-.57.4,1.46a102.94,102.94,0,0,1,3.49,17.3,49.81,49.81,0,0,1-1.41,18.31l-1,3.65-7.64-2.61Z" style="fill:#025959"/><path d="M802.22,165a36,36,0,0,1,2.11-13.25,72.8,72.8,0,0,1,5.35-11.49l.74-1.34,2.51,1.12-.48,1.44a69.86,69.86,0,0,0-3,11.55,29.77,29.77,0,0,0,.27,11.08l.85,3.71-8.22,1Z" style="fill:#025959"/><path d="M1487.15,156.6a23.47,23.47,0,0,0,1.75-8.4,53.29,53.29,0,0,0-.62-9l-.11-.8,1.48-.31.22.78a56.17,56.17,0,0,1,1.87,9.27,26.57,26.57,0,0,1-.76,9.8l-.54,2-4.09-1.4Z" style="fill:#025959"/><path d="M1496.32,158.26a19.41,19.41,0,0,1,1.12-7.1,40.84,40.84,0,0,1,2.87-6.16l.4-.71,1.34.6-.26.77a37.31,37.31,0,0,0-1.59,6.19,15.9,15.9,0,0,0,.14,5.93l.46,2-4.41.52Z" style="fill:#025959"/><path d="M1449.3,116.35a70.8,70.8,0,0,0,5.34-25.57,162.39,162.39,0,0,0-1.89-27.49l-.34-2.46,4.52-.93.65,2.38a168.22,168.22,0,0,1,5.69,28.21,88.71,88.71,0,0,1,.26,14.87,76.21,76.21,0,0,1-2.55,15l-1.64,6L1446.86,122Z" style="fill:#025959"/><path d="M1463.64,121.39a55.71,55.71,0,0,1,.72-11.13,64.93,64.93,0,0,1,2.71-10.48A120.36,120.36,0,0,1,1475.8,81l1.2-2.17,4.1,1.82-.78,2.35a112.86,112.86,0,0,0-4.87,18.84,48.29,48.29,0,0,0,.45,18.06l1.38,6-13.43,1.59Z" style="fill:#025959"/><path d="M1236.49,72.66a58.58,58.58,0,0,0,4.43-21.2,134.56,134.56,0,0,0-1.57-22.78l-.28-2,3.75-.77.54,2a140.94,140.94,0,0,1,4.72,23.38,74.46,74.46,0,0,1,.21,12.33A63,63,0,0,1,1246.17,76l-1.36,4.94-10.34-3.53Z" style="fill:#025959"/><path d="M1248.38,76.84a46.47,46.47,0,0,1,.6-9.23,53.36,53.36,0,0,1,2.24-8.68,99.44,99.44,0,0,1,7.24-15.53l1-1.8,3.4,1.5-.65,1.95a94.49,94.49,0,0,0-4,15.62,40.11,40.11,0,0,0,.37,15l1.15,5L1248.56,82Z" style="fill:#025959"/><path d="M66.61,118.22a61.66,61.66,0,0,0,4.65-22.3,141.29,141.29,0,0,0-1.64-24l-.3-2.14L73.26,69l.58,2.08a147.73,147.73,0,0,1,5,24.59,77.81,77.81,0,0,1,.22,13,65.85,65.85,0,0,1-2.23,13.06l-1.43,5.2-10.87-3.72Z" style="fill:#025959"/><path d="M79.11,122.61a48.89,48.89,0,0,1,.64-9.7,55.66,55.66,0,0,1,2.35-9.14,103.45,103.45,0,0,1,7.62-16.33l1-1.89,3.58,1.58-.69,2.05a99.46,99.46,0,0,0-4.24,16.42,42.35,42.35,0,0,0,.39,15.75L91,126.63,79.3,128Z" style="fill:#025959"/><path d="M1793.52,107.82a64.33,64.33,0,0,0,4.85-23.24,147.09,147.09,0,0,0-1.72-25l-.3-2.23,4.1-.85.6,2.16a154.52,154.52,0,0,1,5.17,25.63,81.05,81.05,0,0,1,.23,13.51,69.92,69.92,0,0,1-2.32,13.62l-1.49,5.42L1791.3,113Z" style="fill:#025959"/><path d="M1806.55,112.4a50.71,50.71,0,0,1,.66-10.11,58.13,58.13,0,0,1,2.45-9.53,108.68,108.68,0,0,1,7.94-17l1.09-2,3.73,1.65-.72,2.14a103.58,103.58,0,0,0-4.42,17.11,43.75,43.75,0,0,0,.41,16.41l1.26,5.5L1806.74,118Z" style="fill:#025959"/><path d="M1299.72,148.39a43.86,43.86,0,0,0,3.33-15.93,100.73,100.73,0,0,0-1.18-17.13l-.21-1.53,2.82-.58.41,1.49a105.15,105.15,0,0,1,3.54,17.57,55,55,0,0,1,.16,9.27,46.7,46.7,0,0,1-1.59,9.33l-1,3.72-7.77-2.66Z" style="fill:#025959"/><path d="M1308.66,151.53a36.67,36.67,0,0,1,2.14-13.46,74.21,74.21,0,0,1,5.44-11.67L1317,125l2.55,1.14-.49,1.46a71.17,71.17,0,0,0-3,11.74,30,30,0,0,0,.28,11.25l.86,3.77-8.35,1Z" style="fill:#025959"/><path d="M261.87,153a40.58,40.58,0,0,0,3.07-14.68,93.11,93.11,0,0,0-1.08-15.79l-.2-1.41,2.6-.53.37,1.37a96.54,96.54,0,0,1,3.27,16.19,46.76,46.76,0,0,1-1.32,17.15l-.95,3.42-7.15-2.45Z" style="fill:#025959"/><path d="M270.11,155.9a33.81,33.81,0,0,1,2-12.41,69.23,69.23,0,0,1,5-10.76l.69-1.25,2.36,1.05-.45,1.35a64.7,64.7,0,0,0-2.8,10.81,27.68,27.68,0,0,0,.26,10.37l.8,3.48-7.71.91Z" style="fill:#025959"/><path d="M828.9,175.75a73.17,73.17,0,0,0,5.54-26.5,168.17,168.17,0,0,0-2-28.5l-.35-2.54,4.69-1,.68,2.47a175,175,0,0,1,5.89,29.23,92.1,92.1,0,0,1,.27,15.42A79.07,79.07,0,0,1,841,179.9l-1.7,6.18-12.93-4.42Z" style="fill:#025959"/><path d="M843.77,181a58.28,58.28,0,0,1,.75-11.54,66.26,66.26,0,0,1,2.81-10.86,123.25,123.25,0,0,1,9-19.42l1.24-2.25,4.25,1.88-.81,2.44a116.94,116.94,0,0,0-5,19.53,50.12,50.12,0,0,0,.46,18.72l1.44,6.27L844,187.4Z" style="fill:#025959"/><path d="M1066.44,129a74.91,74.91,0,0,0,4.41-14.24,91.38,91.38,0,0,0,1.73-15.18c.36-10.36-.7-21-2.17-31.62l-.39-2.82,5.2-1.08.76,2.74c2.87,10.5,5.44,21.22,6.54,32.45a102.6,102.6,0,0,1,.3,17.11,88.61,88.61,0,0,1-2.94,17.23l-1.89,6.86-14.33-4.9Z" style="fill:#025959"/><path d="M1082.94,134.76a64.18,64.18,0,0,1,.83-12.8,74.94,74.94,0,0,1,3.11-12,137.67,137.67,0,0,1,10-21.56l1.38-2.49L1103,88l-.9,2.7a130.43,130.43,0,0,0-5.6,21.67,55.58,55.58,0,0,0,.51,20.78l1.6,7-15.45,1.83Z" style="fill:#025959"/><path d="M527.49,117.85a37.16,37.16,0,0,0,2.79-13.35,85.31,85.31,0,0,0-1-14.35l-.18-1.28,2.36-.49.34,1.25a87.43,87.43,0,0,1,3,14.72,42.35,42.35,0,0,1-1.19,15.58l-.87,3.11-6.5-2.22Z" style="fill:#025959"/><path d="M535,120.48a30.8,30.8,0,0,1,1.79-11.28,63,63,0,0,1,4.56-9.78l.63-1.13,2.14.94-.41,1.23a59,59,0,0,0-2.54,9.83,25.43,25.43,0,0,0,.23,9.43l.73,3.16-7,.83Z" style="fill:#025959"/><path d="M923.35,73.62a41.13,41.13,0,0,0,3.09-14.82,93.61,93.61,0,0,0-1.09-15.92l-.2-1.42,2.62-.54.38,1.38a97.92,97.92,0,0,1,3.3,16.34,47.29,47.29,0,0,1-1.33,17.29l-1,3.45-7.21-2.46Z" style="fill:#025959"/><path d="M931.66,76.54a34.23,34.23,0,0,1,2-12.52,69.55,69.55,0,0,1,5.06-10.85l.7-1.26L941.77,53l-.45,1.36a66,66,0,0,0-2.82,10.92,28,28,0,0,0,.26,10.46l.8,3.51-7.77.91Z" style="fill:#025959"/><path d="M1607.09,129.62a78.76,78.76,0,0,0,4.62-14.9,95.78,95.78,0,0,0,1.81-15.91c.38-10.84-.74-22-2.27-33.11l-.41-3,5.45-1.13.79,2.87c3,11,5.69,22.22,6.85,34a107.91,107.91,0,0,1,.31,17.91,92.47,92.47,0,0,1-3.07,18.05l-2,7.19-15-5.13Z" style="fill:#025959"/><path d="M1624.37,135.69a67.11,67.11,0,0,1,.87-13.4,77.69,77.69,0,0,1,3.26-12.63A145.24,145.24,0,0,1,1639,87.09l1.45-2.61,4.94,2.18-1,2.84a136.79,136.79,0,0,0-5.86,22.69,58,58,0,0,0,.54,21.76l1.67,7.29-16.18,1.91Z" style="fill:#025959"/><path d="M719.07,85.87a62.2,62.2,0,0,0,4.71-22.56,142.59,142.59,0,0,0-1.66-24.24l-.3-2.16,4-.83.57,2.11a148.66,148.66,0,0,1,5,24.87,78.43,78.43,0,0,1,.23,13.11,68.08,68.08,0,0,1-2.25,13.22l-1.45,5.26-11-3.76Z" style="fill:#025959"/><path d="M731.72,90.31a49.25,49.25,0,0,1,.64-9.81,56,56,0,0,1,2.39-9.25,105.36,105.36,0,0,1,7.7-16.52l1.06-1.91,3.61,1.6-.69,2.07a99.64,99.64,0,0,0-4.29,16.62A42.62,42.62,0,0,0,742.53,89l1.23,5.34-11.85,1.4Z" style="fill:#025959"/><path d="M292.54,65.18a54,54,0,0,0,4.09-19.6,124.45,124.45,0,0,0-1.44-21.06l-.26-1.88,3.46-.72.5,1.83a128.45,128.45,0,0,1,4.36,21.61,67.63,67.63,0,0,1,.2,11.4,58.9,58.9,0,0,1-2,11.49l-1.26,4.57-9.56-3.27Z" style="fill:#025959"/><path d="M303.53,69.05a45.34,45.34,0,0,1,2.63-16.57,92,92,0,0,1,6.69-14.35l.92-1.67,3.15,1.39-.61,1.81a86.9,86.9,0,0,0-3.72,14.44,36.85,36.85,0,0,0,.34,13.84L314,72.58l-10.28,1.21Z" style="fill:#025959"/></g></svg>